<?xml version="1.0" encoding="utf-8" standalone="no"?>
<!DOCTYPE svg PUBLIC "-//W3C//DTD SVG 1.1//EN"
  "http://www.w3.org/Graphics/SVG/1.1/DTD/svg11.dtd">
<svg xmlns:xlink="http://www.w3.org/1999/xlink" width="864pt" height="648pt" viewBox="0 0 864 648" xmlns="http://www.w3.org/2000/svg" version="1.1">
 <metadata>
  <rdf:RDF xmlns:dc="http://purl.org/dc/elements/1.1/" xmlns:cc="http://creativecommons.org/ns#" xmlns:rdf="http://www.w3.org/1999/02/22-rdf-syntax-ns#">
   <cc:Work>
    <dc:type rdf:resource="http://purl.org/dc/dcmitype/StillImage"/>
    <dc:date>2025-10-21T14:55:44.531347</dc:date>
    <dc:format>image/svg+xml</dc:format>
    <dc:creator>
     <cc:Agent>
      <dc:title>Matplotlib v3.10.6, https://matplotlib.org/</dc:title>
     </cc:Agent>
    </dc:creator>
   </cc:Work>
  </rdf:RDF>
 </metadata>
 <defs>
  <style type="text/css">*{stroke-linejoin: round; stroke-linecap: butt}</style>
 </defs>
 <g id="figure_1">
  <g id="patch_1">
   <path d="M 0 648 
L 864 648 
L 864 0 
L 0 0 
z
" style="fill: #ffffff"/>
  </g>
  <g id="axes_1">
   <g id="patch_2">
    <path d="M 72.2 287.44 
L 853.2 287.44 
L 853.2 25.44 
L 72.2 25.44 
z
" style="fill: #ffffff"/>
   </g>
   <g id="matplotlib.axis_1">
    <g id="xtick_1">
     <g id="line2d_1">
      <path d="M 107.7 287.44 
L 107.7 25.44 
" clip-path="url(#p858fed017a)" style="fill: none; stroke: #b0b0b0; stroke-width: 0.8; stroke-linecap: square"/>
     </g>
     <g id="line2d_2">
      <defs>
       <path id="mcbec46bd17" d="M 0 0 
L 0 3.5 
" style="stroke: #000000; stroke-width: 0.8"/>
      </defs>
      <g>
       <use xlink:href="#mcbec46bd17" x="107.7" y="287.44" style="stroke: #000000; stroke-width: 0.8"/>
      </g>
     </g>
     <g id="text_1">
      <!-- 0.0 -->
      <g transform="translate(99.748437 302.038437) scale(0.1 -0.1)">
       <defs>
        <path id="DejaVuSans-30" d="M 2034 4250 
Q 1547 4250 1301 3770 
Q 1056 3291 1056 2328 
Q 1056 1369 1301 889 
Q 1547 409 2034 409 
Q 2525 409 2770 889 
Q 3016 1369 3016 2328 
Q 3016 3291 2770 3770 
Q 2525 4250 2034 4250 
z
M 2034 4750 
Q 2819 4750 3233 4129 
Q 3647 3509 3647 2328 
Q 3647 1150 3233 529 
Q 2819 -91 2034 -91 
Q 1250 -91 836 529 
Q 422 1150 422 2328 
Q 422 3509 836 4129 
Q 1250 4750 2034 4750 
z
" transform="scale(0.015625)"/>
        <path id="DejaVuSans-2e" d="M 684 794 
L 1344 794 
L 1344 0 
L 684 0 
L 684 794 
z
" transform="scale(0.015625)"/>
       </defs>
       <use xlink:href="#DejaVuSans-30"/>
       <use xlink:href="#DejaVuSans-2e" transform="translate(63.623047 0)"/>
       <use xlink:href="#DejaVuSans-30" transform="translate(95.410156 0)"/>
      </g>
     </g>
    </g>
    <g id="xtick_2">
     <g id="line2d_3">
      <path d="M 246.507429 287.44 
L 246.507429 25.44 
" clip-path="url(#p858fed017a)" style="fill: none; stroke: #b0b0b0; stroke-width: 0.8; stroke-linecap: square"/>
     </g>
     <g id="line2d_4">
      <g>
       <use xlink:href="#mcbec46bd17" x="246.507429" y="287.44" style="stroke: #000000; stroke-width: 0.8"/>
      </g>
     </g>
     <g id="text_2">
      <!-- 0.2 -->
      <g transform="translate(238.555867 302.038437) scale(0.1 -0.1)">
       <defs>
        <path id="DejaVuSans-32" d="M 1228 531 
L 3431 531 
L 3431 0 
L 469 0 
L 469 531 
Q 828 903 1448 1529 
Q 2069 2156 2228 2338 
Q 2531 2678 2651 2914 
Q 2772 3150 2772 3378 
Q 2772 3750 2511 3984 
Q 2250 4219 1831 4219 
Q 1534 4219 1204 4116 
Q 875 4013 500 3803 
L 500 4441 
Q 881 4594 1212 4672 
Q 1544 4750 1819 4750 
Q 2544 4750 2975 4387 
Q 3406 4025 3406 3419 
Q 3406 3131 3298 2873 
Q 3191 2616 2906 2266 
Q 2828 2175 2409 1742 
Q 1991 1309 1228 531 
z
" transform="scale(0.015625)"/>
       </defs>
       <use xlink:href="#DejaVuSans-30"/>
       <use xlink:href="#DejaVuSans-2e" transform="translate(63.623047 0)"/>
       <use xlink:href="#DejaVuSans-32" transform="translate(95.410156 0)"/>
      </g>
     </g>
    </g>
    <g id="xtick_3">
     <g id="line2d_5">
      <path d="M 385.314858 287.44 
L 385.314858 25.44 
" clip-path="url(#p858fed017a)" style="fill: none; stroke: #b0b0b0; stroke-width: 0.8; stroke-linecap: square"/>
     </g>
     <g id="line2d_6">
      <g>
       <use xlink:href="#mcbec46bd17" x="385.314858" y="287.44" style="stroke: #000000; stroke-width: 0.8"/>
      </g>
     </g>
     <g id="text_3">
      <!-- 0.4 -->
      <g transform="translate(377.363296 302.038437) scale(0.1 -0.1)">
       <defs>
        <path id="DejaVuSans-34" d="M 2419 4116 
L 825 1625 
L 2419 1625 
L 2419 4116 
z
M 2253 4666 
L 3047 4666 
L 3047 1625 
L 3713 1625 
L 3713 1100 
L 3047 1100 
L 3047 0 
L 2419 0 
L 2419 1100 
L 313 1100 
L 313 1709 
L 2253 4666 
z
" transform="scale(0.015625)"/>
       </defs>
       <use xlink:href="#DejaVuSans-30"/>
       <use xlink:href="#DejaVuSans-2e" transform="translate(63.623047 0)"/>
       <use xlink:href="#DejaVuSans-34" transform="translate(95.410156 0)"/>
      </g>
     </g>
    </g>
    <g id="xtick_4">
     <g id="line2d_7">
      <path d="M 524.122287 287.44 
L 524.122287 25.44 
" clip-path="url(#p858fed017a)" style="fill: none; stroke: #b0b0b0; stroke-width: 0.8; stroke-linecap: square"/>
     </g>
     <g id="line2d_8">
      <g>
       <use xlink:href="#mcbec46bd17" x="524.122287" y="287.44" style="stroke: #000000; stroke-width: 0.8"/>
      </g>
     </g>
     <g id="text_4">
      <!-- 0.6 -->
      <g transform="translate(516.170725 302.038437) scale(0.1 -0.1)">
       <defs>
        <path id="DejaVuSans-36" d="M 2113 2584 
Q 1688 2584 1439 2293 
Q 1191 2003 1191 1497 
Q 1191 994 1439 701 
Q 1688 409 2113 409 
Q 2538 409 2786 701 
Q 3034 994 3034 1497 
Q 3034 2003 2786 2293 
Q 2538 2584 2113 2584 
z
M 3366 4563 
L 3366 3988 
Q 3128 4100 2886 4159 
Q 2644 4219 2406 4219 
Q 1781 4219 1451 3797 
Q 1122 3375 1075 2522 
Q 1259 2794 1537 2939 
Q 1816 3084 2150 3084 
Q 2853 3084 3261 2657 
Q 3669 2231 3669 1497 
Q 3669 778 3244 343 
Q 2819 -91 2113 -91 
Q 1303 -91 875 529 
Q 447 1150 447 2328 
Q 447 3434 972 4092 
Q 1497 4750 2381 4750 
Q 2619 4750 2861 4703 
Q 3103 4656 3366 4563 
z
" transform="scale(0.015625)"/>
       </defs>
       <use xlink:href="#DejaVuSans-30"/>
       <use xlink:href="#DejaVuSans-2e" transform="translate(63.623047 0)"/>
       <use xlink:href="#DejaVuSans-36" transform="translate(95.410156 0)"/>
      </g>
     </g>
    </g>
    <g id="xtick_5">
     <g id="line2d_9">
      <path d="M 662.929717 287.44 
L 662.929717 25.44 
" clip-path="url(#p858fed017a)" style="fill: none; stroke: #b0b0b0; stroke-width: 0.8; stroke-linecap: square"/>
     </g>
     <g id="line2d_10">
      <g>
       <use xlink:href="#mcbec46bd17" x="662.929717" y="287.44" style="stroke: #000000; stroke-width: 0.8"/>
      </g>
     </g>
     <g id="text_5">
      <!-- 0.8 -->
      <g transform="translate(654.978154 302.038437) scale(0.1 -0.1)">
       <defs>
        <path id="DejaVuSans-38" d="M 2034 2216 
Q 1584 2216 1326 1975 
Q 1069 1734 1069 1313 
Q 1069 891 1326 650 
Q 1584 409 2034 409 
Q 2484 409 2743 651 
Q 3003 894 3003 1313 
Q 3003 1734 2745 1975 
Q 2488 2216 2034 2216 
z
M 1403 2484 
Q 997 2584 770 2862 
Q 544 3141 544 3541 
Q 544 4100 942 4425 
Q 1341 4750 2034 4750 
Q 2731 4750 3128 4425 
Q 3525 4100 3525 3541 
Q 3525 3141 3298 2862 
Q 3072 2584 2669 2484 
Q 3125 2378 3379 2068 
Q 3634 1759 3634 1313 
Q 3634 634 3220 271 
Q 2806 -91 2034 -91 
Q 1263 -91 848 271 
Q 434 634 434 1313 
Q 434 1759 690 2068 
Q 947 2378 1403 2484 
z
M 1172 3481 
Q 1172 3119 1398 2916 
Q 1625 2713 2034 2713 
Q 2441 2713 2670 2916 
Q 2900 3119 2900 3481 
Q 2900 3844 2670 4047 
Q 2441 4250 2034 4250 
Q 1625 4250 1398 4047 
Q 1172 3844 1172 3481 
z
" transform="scale(0.015625)"/>
       </defs>
       <use xlink:href="#DejaVuSans-30"/>
       <use xlink:href="#DejaVuSans-2e" transform="translate(63.623047 0)"/>
       <use xlink:href="#DejaVuSans-38" transform="translate(95.410156 0)"/>
      </g>
     </g>
    </g>
    <g id="xtick_6">
     <g id="line2d_11">
      <path d="M 801.737146 287.44 
L 801.737146 25.44 
" clip-path="url(#p858fed017a)" style="fill: none; stroke: #b0b0b0; stroke-width: 0.8; stroke-linecap: square"/>
     </g>
     <g id="line2d_12">
      <g>
       <use xlink:href="#mcbec46bd17" x="801.737146" y="287.44" style="stroke: #000000; stroke-width: 0.8"/>
      </g>
     </g>
     <g id="text_6">
      <!-- 1.0 -->
      <g transform="translate(793.785583 302.038437) scale(0.1 -0.1)">
       <defs>
        <path id="DejaVuSans-31" d="M 794 531 
L 1825 531 
L 1825 4091 
L 703 3866 
L 703 4441 
L 1819 4666 
L 2450 4666 
L 2450 531 
L 3481 531 
L 3481 0 
L 794 0 
L 794 531 
z
" transform="scale(0.015625)"/>
       </defs>
       <use xlink:href="#DejaVuSans-31"/>
       <use xlink:href="#DejaVuSans-2e" transform="translate(63.623047 0)"/>
       <use xlink:href="#DejaVuSans-30" transform="translate(95.410156 0)"/>
      </g>
     </g>
    </g>
    <g id="text_7">
     <!-- Time [ms] -->
     <g transform="translate(437.500781 315.716563) scale(0.1 -0.1)">
      <defs>
       <path id="DejaVuSans-54" d="M -19 4666 
L 3928 4666 
L 3928 4134 
L 2272 4134 
L 2272 0 
L 1638 0 
L 1638 4134 
L -19 4134 
L -19 4666 
z
" transform="scale(0.015625)"/>
       <path id="DejaVuSans-69" d="M 603 3500 
L 1178 3500 
L 1178 0 
L 603 0 
L 603 3500 
z
M 603 4863 
L 1178 4863 
L 1178 4134 
L 603 4134 
L 603 4863 
z
" transform="scale(0.015625)"/>
       <path id="DejaVuSans-6d" d="M 3328 2828 
Q 3544 3216 3844 3400 
Q 4144 3584 4550 3584 
Q 5097 3584 5394 3201 
Q 5691 2819 5691 2113 
L 5691 0 
L 5113 0 
L 5113 2094 
Q 5113 2597 4934 2840 
Q 4756 3084 4391 3084 
Q 3944 3084 3684 2787 
Q 3425 2491 3425 1978 
L 3425 0 
L 2847 0 
L 2847 2094 
Q 2847 2600 2669 2842 
Q 2491 3084 2119 3084 
Q 1678 3084 1418 2786 
Q 1159 2488 1159 1978 
L 1159 0 
L 581 0 
L 581 3500 
L 1159 3500 
L 1159 2956 
Q 1356 3278 1631 3431 
Q 1906 3584 2284 3584 
Q 2666 3584 2933 3390 
Q 3200 3197 3328 2828 
z
" transform="scale(0.015625)"/>
       <path id="DejaVuSans-65" d="M 3597 1894 
L 3597 1613 
L 953 1613 
Q 991 1019 1311 708 
Q 1631 397 2203 397 
Q 2534 397 2845 478 
Q 3156 559 3463 722 
L 3463 178 
Q 3153 47 2828 -22 
Q 2503 -91 2169 -91 
Q 1331 -91 842 396 
Q 353 884 353 1716 
Q 353 2575 817 3079 
Q 1281 3584 2069 3584 
Q 2775 3584 3186 3129 
Q 3597 2675 3597 1894 
z
M 3022 2063 
Q 3016 2534 2758 2815 
Q 2500 3097 2075 3097 
Q 1594 3097 1305 2825 
Q 1016 2553 972 2059 
L 3022 2063 
z
" transform="scale(0.015625)"/>
       <path id="DejaVuSans-20" transform="scale(0.015625)"/>
       <path id="DejaVuSans-5b" d="M 550 4863 
L 1875 4863 
L 1875 4416 
L 1125 4416 
L 1125 -397 
L 1875 -397 
L 1875 -844 
L 550 -844 
L 550 4863 
z
" transform="scale(0.015625)"/>
       <path id="DejaVuSans-73" d="M 2834 3397 
L 2834 2853 
Q 2591 2978 2328 3040 
Q 2066 3103 1784 3103 
Q 1356 3103 1142 2972 
Q 928 2841 928 2578 
Q 928 2378 1081 2264 
Q 1234 2150 1697 2047 
L 1894 2003 
Q 2506 1872 2764 1633 
Q 3022 1394 3022 966 
Q 3022 478 2636 193 
Q 2250 -91 1575 -91 
Q 1294 -91 989 -36 
Q 684 19 347 128 
L 347 722 
Q 666 556 975 473 
Q 1284 391 1588 391 
Q 1994 391 2212 530 
Q 2431 669 2431 922 
Q 2431 1156 2273 1281 
Q 2116 1406 1581 1522 
L 1381 1569 
Q 847 1681 609 1914 
Q 372 2147 372 2553 
Q 372 3047 722 3315 
Q 1072 3584 1716 3584 
Q 2034 3584 2315 3537 
Q 2597 3491 2834 3397 
z
" transform="scale(0.015625)"/>
       <path id="DejaVuSans-5d" d="M 1947 4863 
L 1947 -844 
L 622 -844 
L 622 -397 
L 1369 -397 
L 1369 4416 
L 622 4416 
L 622 4863 
L 1947 4863 
z
" transform="scale(0.015625)"/>
      </defs>
      <use xlink:href="#DejaVuSans-54"/>
      <use xlink:href="#DejaVuSans-69" transform="translate(57.958984 0)"/>
      <use xlink:href="#DejaVuSans-6d" transform="translate(85.742188 0)"/>
      <use xlink:href="#DejaVuSans-65" transform="translate(183.154297 0)"/>
      <use xlink:href="#DejaVuSans-20" transform="translate(244.677734 0)"/>
      <use xlink:href="#DejaVuSans-5b" transform="translate(276.464844 0)"/>
      <use xlink:href="#DejaVuSans-6d" transform="translate(315.478516 0)"/>
      <use xlink:href="#DejaVuSans-73" transform="translate(412.890625 0)"/>
      <use xlink:href="#DejaVuSans-5d" transform="translate(464.990234 0)"/>
     </g>
    </g>
   </g>
   <g id="matplotlib.axis_2">
    <g id="ytick_1">
     <g id="line2d_13">
      <path d="M 72.2 275.53217 
L 853.2 275.53217 
" clip-path="url(#p858fed017a)" style="fill: none; stroke: #b0b0b0; stroke-width: 0.8; stroke-linecap: square"/>
     </g>
     <g id="line2d_14">
      <defs>
       <path id="mf66cd2b389" d="M 0 0 
L -3.5 0 
" style="stroke: #000000; stroke-width: 0.8"/>
      </defs>
      <g>
       <use xlink:href="#mf66cd2b389" x="72.2" y="275.53217" style="stroke: #000000; stroke-width: 0.8"/>
      </g>
     </g>
     <g id="text_8">
      <!-- −1.00 -->
      <g transform="translate(34.554688 279.331389) scale(0.1 -0.1)">
       <defs>
        <path id="DejaVuSans-2212" d="M 678 2272 
L 4684 2272 
L 4684 1741 
L 678 1741 
L 678 2272 
z
" transform="scale(0.015625)"/>
       </defs>
       <use xlink:href="#DejaVuSans-2212"/>
       <use xlink:href="#DejaVuSans-31" transform="translate(83.789062 0)"/>
       <use xlink:href="#DejaVuSans-2e" transform="translate(147.412109 0)"/>
       <use xlink:href="#DejaVuSans-30" transform="translate(179.199219 0)"/>
       <use xlink:href="#DejaVuSans-30" transform="translate(242.822266 0)"/>
      </g>
     </g>
    </g>
    <g id="ytick_2">
     <g id="line2d_15">
      <path d="M 72.2 245.758164 
L 853.2 245.758164 
" clip-path="url(#p858fed017a)" style="fill: none; stroke: #b0b0b0; stroke-width: 0.8; stroke-linecap: square"/>
     </g>
     <g id="line2d_16">
      <g>
       <use xlink:href="#mf66cd2b389" x="72.2" y="245.758164" style="stroke: #000000; stroke-width: 0.8"/>
      </g>
     </g>
     <g id="text_9">
      <!-- −0.75 -->
      <g transform="translate(34.554688 249.557383) scale(0.1 -0.1)">
       <defs>
        <path id="DejaVuSans-37" d="M 525 4666 
L 3525 4666 
L 3525 4397 
L 1831 0 
L 1172 0 
L 2766 4134 
L 525 4134 
L 525 4666 
z
" transform="scale(0.015625)"/>
        <path id="DejaVuSans-35" d="M 691 4666 
L 3169 4666 
L 3169 4134 
L 1269 4134 
L 1269 2991 
Q 1406 3038 1543 3061 
Q 1681 3084 1819 3084 
Q 2600 3084 3056 2656 
Q 3513 2228 3513 1497 
Q 3513 744 3044 326 
Q 2575 -91 1722 -91 
Q 1428 -91 1123 -41 
Q 819 9 494 109 
L 494 744 
Q 775 591 1075 516 
Q 1375 441 1709 441 
Q 2250 441 2565 725 
Q 2881 1009 2881 1497 
Q 2881 1984 2565 2268 
Q 2250 2553 1709 2553 
Q 1456 2553 1204 2497 
Q 953 2441 691 2322 
L 691 4666 
z
" transform="scale(0.015625)"/>
       </defs>
       <use xlink:href="#DejaVuSans-2212"/>
       <use xlink:href="#DejaVuSans-30" transform="translate(83.789062 0)"/>
       <use xlink:href="#DejaVuSans-2e" transform="translate(147.412109 0)"/>
       <use xlink:href="#DejaVuSans-37" transform="translate(179.199219 0)"/>
       <use xlink:href="#DejaVuSans-35" transform="translate(242.822266 0)"/>
      </g>
     </g>
    </g>
    <g id="ytick_3">
     <g id="line2d_17">
      <path d="M 72.2 215.984158 
L 853.2 215.984158 
" clip-path="url(#p858fed017a)" style="fill: none; stroke: #b0b0b0; stroke-width: 0.8; stroke-linecap: square"/>
     </g>
     <g id="line2d_18">
      <g>
       <use xlink:href="#mf66cd2b389" x="72.2" y="215.984158" style="stroke: #000000; stroke-width: 0.8"/>
      </g>
     </g>
     <g id="text_10">
      <!-- −0.50 -->
      <g transform="translate(34.554688 219.783377) scale(0.1 -0.1)">
       <use xlink:href="#DejaVuSans-2212"/>
       <use xlink:href="#DejaVuSans-30" transform="translate(83.789062 0)"/>
       <use xlink:href="#DejaVuSans-2e" transform="translate(147.412109 0)"/>
       <use xlink:href="#DejaVuSans-35" transform="translate(179.199219 0)"/>
       <use xlink:href="#DejaVuSans-30" transform="translate(242.822266 0)"/>
      </g>
     </g>
    </g>
    <g id="ytick_4">
     <g id="line2d_19">
      <path d="M 72.2 186.210153 
L 853.2 186.210153 
" clip-path="url(#p858fed017a)" style="fill: none; stroke: #b0b0b0; stroke-width: 0.8; stroke-linecap: square"/>
     </g>
     <g id="line2d_20">
      <g>
       <use xlink:href="#mf66cd2b389" x="72.2" y="186.210153" style="stroke: #000000; stroke-width: 0.8"/>
      </g>
     </g>
     <g id="text_11">
      <!-- −0.25 -->
      <g transform="translate(34.554688 190.009371) scale(0.1 -0.1)">
       <use xlink:href="#DejaVuSans-2212"/>
       <use xlink:href="#DejaVuSans-30" transform="translate(83.789062 0)"/>
       <use xlink:href="#DejaVuSans-2e" transform="translate(147.412109 0)"/>
       <use xlink:href="#DejaVuSans-32" transform="translate(179.199219 0)"/>
       <use xlink:href="#DejaVuSans-35" transform="translate(242.822266 0)"/>
      </g>
     </g>
    </g>
    <g id="ytick_5">
     <g id="line2d_21">
      <path d="M 72.2 156.436147 
L 853.2 156.436147 
" clip-path="url(#p858fed017a)" style="fill: none; stroke: #b0b0b0; stroke-width: 0.8; stroke-linecap: square"/>
     </g>
     <g id="line2d_22">
      <g>
       <use xlink:href="#mf66cd2b389" x="72.2" y="156.436147" style="stroke: #000000; stroke-width: 0.8"/>
      </g>
     </g>
     <g id="text_12">
      <!-- 0.00 -->
      <g transform="translate(42.934375 160.235365) scale(0.1 -0.1)">
       <use xlink:href="#DejaVuSans-30"/>
       <use xlink:href="#DejaVuSans-2e" transform="translate(63.623047 0)"/>
       <use xlink:href="#DejaVuSans-30" transform="translate(95.410156 0)"/>
       <use xlink:href="#DejaVuSans-30" transform="translate(159.033203 0)"/>
      </g>
     </g>
    </g>
    <g id="ytick_6">
     <g id="line2d_23">
      <path d="M 72.2 126.662141 
L 853.2 126.662141 
" clip-path="url(#p858fed017a)" style="fill: none; stroke: #b0b0b0; stroke-width: 0.8; stroke-linecap: square"/>
     </g>
     <g id="line2d_24">
      <g>
       <use xlink:href="#mf66cd2b389" x="72.2" y="126.662141" style="stroke: #000000; stroke-width: 0.8"/>
      </g>
     </g>
     <g id="text_13">
      <!-- 0.25 -->
      <g transform="translate(42.934375 130.46136) scale(0.1 -0.1)">
       <use xlink:href="#DejaVuSans-30"/>
       <use xlink:href="#DejaVuSans-2e" transform="translate(63.623047 0)"/>
       <use xlink:href="#DejaVuSans-32" transform="translate(95.410156 0)"/>
       <use xlink:href="#DejaVuSans-35" transform="translate(159.033203 0)"/>
      </g>
     </g>
    </g>
    <g id="ytick_7">
     <g id="line2d_25">
      <path d="M 72.2 96.888135 
L 853.2 96.888135 
" clip-path="url(#p858fed017a)" style="fill: none; stroke: #b0b0b0; stroke-width: 0.8; stroke-linecap: square"/>
     </g>
     <g id="line2d_26">
      <g>
       <use xlink:href="#mf66cd2b389" x="72.2" y="96.888135" style="stroke: #000000; stroke-width: 0.8"/>
      </g>
     </g>
     <g id="text_14">
      <!-- 0.50 -->
      <g transform="translate(42.934375 100.687354) scale(0.1 -0.1)">
       <use xlink:href="#DejaVuSans-30"/>
       <use xlink:href="#DejaVuSans-2e" transform="translate(63.623047 0)"/>
       <use xlink:href="#DejaVuSans-35" transform="translate(95.410156 0)"/>
       <use xlink:href="#DejaVuSans-30" transform="translate(159.033203 0)"/>
      </g>
     </g>
    </g>
    <g id="ytick_8">
     <g id="line2d_27">
      <path d="M 72.2 67.114129 
L 853.2 67.114129 
" clip-path="url(#p858fed017a)" style="fill: none; stroke: #b0b0b0; stroke-width: 0.8; stroke-linecap: square"/>
     </g>
     <g id="line2d_28">
      <g>
       <use xlink:href="#mf66cd2b389" x="72.2" y="67.114129" style="stroke: #000000; stroke-width: 0.8"/>
      </g>
     </g>
     <g id="text_15">
      <!-- 0.75 -->
      <g transform="translate(42.934375 70.913348) scale(0.1 -0.1)">
       <use xlink:href="#DejaVuSans-30"/>
       <use xlink:href="#DejaVuSans-2e" transform="translate(63.623047 0)"/>
       <use xlink:href="#DejaVuSans-37" transform="translate(95.410156 0)"/>
       <use xlink:href="#DejaVuSans-35" transform="translate(159.033203 0)"/>
      </g>
     </g>
    </g>
    <g id="ytick_9">
     <g id="line2d_29">
      <path d="M 72.2 37.340123 
L 853.2 37.340123 
" clip-path="url(#p858fed017a)" style="fill: none; stroke: #b0b0b0; stroke-width: 0.8; stroke-linecap: square"/>
     </g>
     <g id="line2d_30">
      <g>
       <use xlink:href="#mf66cd2b389" x="72.2" y="37.340123" style="stroke: #000000; stroke-width: 0.8"/>
      </g>
     </g>
     <g id="text_16">
      <!-- 1.00 -->
      <g transform="translate(42.934375 41.139342) scale(0.1 -0.1)">
       <use xlink:href="#DejaVuSans-31"/>
       <use xlink:href="#DejaVuSans-2e" transform="translate(63.623047 0)"/>
       <use xlink:href="#DejaVuSans-30" transform="translate(95.410156 0)"/>
       <use xlink:href="#DejaVuSans-30" transform="translate(159.033203 0)"/>
      </g>
     </g>
    </g>
    <g id="text_17">
     <!-- Amplitude -->
     <g transform="translate(28.475 182.062656) rotate(-90) scale(0.1 -0.1)">
      <defs>
       <path id="DejaVuSans-41" d="M 2188 4044 
L 1331 1722 
L 3047 1722 
L 2188 4044 
z
M 1831 4666 
L 2547 4666 
L 4325 0 
L 3669 0 
L 3244 1197 
L 1141 1197 
L 716 0 
L 50 0 
L 1831 4666 
z
" transform="scale(0.015625)"/>
       <path id="DejaVuSans-70" d="M 1159 525 
L 1159 -1331 
L 581 -1331 
L 581 3500 
L 1159 3500 
L 1159 2969 
Q 1341 3281 1617 3432 
Q 1894 3584 2278 3584 
Q 2916 3584 3314 3078 
Q 3713 2572 3713 1747 
Q 3713 922 3314 415 
Q 2916 -91 2278 -91 
Q 1894 -91 1617 61 
Q 1341 213 1159 525 
z
M 3116 1747 
Q 3116 2381 2855 2742 
Q 2594 3103 2138 3103 
Q 1681 3103 1420 2742 
Q 1159 2381 1159 1747 
Q 1159 1113 1420 752 
Q 1681 391 2138 391 
Q 2594 391 2855 752 
Q 3116 1113 3116 1747 
z
" transform="scale(0.015625)"/>
       <path id="DejaVuSans-6c" d="M 603 4863 
L 1178 4863 
L 1178 0 
L 603 0 
L 603 4863 
z
" transform="scale(0.015625)"/>
       <path id="DejaVuSans-74" d="M 1172 4494 
L 1172 3500 
L 2356 3500 
L 2356 3053 
L 1172 3053 
L 1172 1153 
Q 1172 725 1289 603 
Q 1406 481 1766 481 
L 2356 481 
L 2356 0 
L 1766 0 
Q 1100 0 847 248 
Q 594 497 594 1153 
L 594 3053 
L 172 3053 
L 172 3500 
L 594 3500 
L 594 4494 
L 1172 4494 
z
" transform="scale(0.015625)"/>
       <path id="DejaVuSans-75" d="M 544 1381 
L 544 3500 
L 1119 3500 
L 1119 1403 
Q 1119 906 1312 657 
Q 1506 409 1894 409 
Q 2359 409 2629 706 
Q 2900 1003 2900 1516 
L 2900 3500 
L 3475 3500 
L 3475 0 
L 2900 0 
L 2900 538 
Q 2691 219 2414 64 
Q 2138 -91 1772 -91 
Q 1169 -91 856 284 
Q 544 659 544 1381 
z
M 1991 3584 
L 1991 3584 
z
" transform="scale(0.015625)"/>
       <path id="DejaVuSans-64" d="M 2906 2969 
L 2906 4863 
L 3481 4863 
L 3481 0 
L 2906 0 
L 2906 525 
Q 2725 213 2448 61 
Q 2172 -91 1784 -91 
Q 1150 -91 751 415 
Q 353 922 353 1747 
Q 353 2572 751 3078 
Q 1150 3584 1784 3584 
Q 2172 3584 2448 3432 
Q 2725 3281 2906 2969 
z
M 947 1747 
Q 947 1113 1208 752 
Q 1469 391 1925 391 
Q 2381 391 2643 752 
Q 2906 1113 2906 1747 
Q 2906 2381 2643 2742 
Q 2381 3103 1925 3103 
Q 1469 3103 1208 2742 
Q 947 2381 947 1747 
z
" transform="scale(0.015625)"/>
      </defs>
      <use xlink:href="#DejaVuSans-41"/>
      <use xlink:href="#DejaVuSans-6d" transform="translate(68.408203 0)"/>
      <use xlink:href="#DejaVuSans-70" transform="translate(165.820312 0)"/>
      <use xlink:href="#DejaVuSans-6c" transform="translate(229.296875 0)"/>
      <use xlink:href="#DejaVuSans-69" transform="translate(257.080078 0)"/>
      <use xlink:href="#DejaVuSans-74" transform="translate(284.863281 0)"/>
      <use xlink:href="#DejaVuSans-75" transform="translate(324.072266 0)"/>
      <use xlink:href="#DejaVuSans-64" transform="translate(387.451172 0)"/>
      <use xlink:href="#DejaVuSans-65" transform="translate(450.927734 0)"/>
     </g>
    </g>
   </g>
   <g id="line2d_31">
    <path d="M 107.7 46.405768 
L 109.782111 46.197196 
L 111.864223 45.685987 
L 113.946334 44.898573 
L 116.028446 43.877638 
L 118.804594 42.258375 
L 124.356891 38.911071 
L 126.439003 37.968578 
L 127.827077 37.547759 
L 129.215152 37.349091 
L 130.603226 37.424222 
L 131.9913 37.827556 
L 133.379374 38.615789 
L 134.767449 39.847312 
L 136.155523 41.581465 
L 137.543597 43.877638 
L 138.931672 46.7942 
L 140.319746 50.387245 
L 141.70782 54.709159 
L 143.095894 59.807011 
L 144.483969 65.720757 
L 145.872043 72.481301 
L 147.260117 80.108406 
L 149.342229 93.183772 
L 151.42434 108.173518 
L 153.506452 124.935912 
L 156.2826 149.589011 
L 160.446823 189.431233 
L 163.917009 222.069744 
L 165.99912 239.740641 
L 167.387195 250.156227 
L 168.775269 259.14741 
L 170.163343 266.431536 
L 170.85738 269.34806 
L 171.551417 271.737664 
L 172.245455 273.569951 
L 172.939492 274.816548 
L 173.633529 275.451469 
L 174.327566 275.451469 
L 175.021603 274.796411 
L 175.71564 273.469631 
L 176.409677 271.458295 
L 177.103715 268.753753 
L 177.797752 265.351878 
L 178.491789 261.253391 
L 179.879863 250.995469 
L 181.267937 238.093405 
L 182.656012 222.754176 
L 184.044086 205.28264 
L 186.126197 175.986543 
L 192.372532 84.394907 
L 193.760606 67.824686 
L 195.14868 54.237149 
L 195.842717 48.774617 
L 196.536755 44.301993 
L 197.230792 40.887121 
L 197.924829 38.58926 
L 198.618866 37.457947 
L 199.312903 37.531899 
L 200.00694 38.837997 
L 200.700978 41.390345 
L 201.395015 45.189438 
L 202.089052 50.221465 
L 202.783089 56.457743 
L 204.171163 72.351822 
L 205.559238 92.334659 
L 206.947312 115.626618 
L 209.72346 167.927773 
L 212.499609 219.223467 
L 213.887683 240.972088 
L 215.275758 258.305367 
L 215.969795 264.941525 
L 216.663832 270.053565 
L 217.357869 273.536786 
L 218.051906 275.308045 
L 218.745943 275.308045 
L 219.43998 273.503347 
L 220.134018 269.888044 
L 220.828055 264.485059 
L 221.522092 257.346998 
L 222.216129 248.55654 
L 223.604203 226.49814 
L 224.992278 199.553775 
L 227.074389 153.696023 
L 229.1565 107.506359 
L 230.544575 80.248735 
L 231.932649 58.334309 
L 232.626686 49.97467 
L 233.320723 43.611689 
L 234.014761 39.402662 
L 234.708798 37.466211 
L 235.402835 37.878347 
L 236.096872 40.66925 
L 236.790909 45.820879 
L 237.484946 53.26553 
L 238.178983 62.885407 
L 239.567058 87.934384 
L 240.955132 119.077899 
L 245.813392 236.145042 
L 246.507429 248.72998 
L 247.201466 259.193618 
L 247.895503 267.253361 
L 248.589541 272.678282 
L 249.283578 275.296702 
L 249.977615 275.002586 
L 250.671652 271.760504 
L 251.365689 265.608978 
L 252.059726 256.661998 
L 252.753763 245.108613 
L 254.141838 215.297249 
L 255.529912 179.043164 
L 258.306061 102.48166 
L 259.694135 70.56003 
L 260.388172 57.921818 
L 261.082209 48.044025 
L 261.776246 41.249847 
L 262.470283 37.779276 
L 263.164321 37.779276 
L 263.858358 41.296409 
L 264.552395 48.272259 
L 265.246432 58.541941 
L 265.940469 71.835888 
L 267.328543 105.929285 
L 269.410655 167.836851 
L 270.798729 208.837715 
L 272.186804 243.380867 
L 272.880841 256.711311 
L 273.574878 266.744103 
L 274.268915 273.099011 
L 274.962952 275.51364 
L 275.656989 273.856016 
L 276.351026 268.133017 
L 277.045064 258.494171 
L 277.739101 245.230468 
L 278.433138 228.768001 
L 279.821212 188.552572 
L 282.597361 99.811909 
L 283.985435 64.315754 
L 284.679472 51.402831 
L 285.373509 42.468358 
L 286.067546 37.904685 
L 286.761584 37.940777 
L 287.455621 42.628661 
L 288.149658 51.836516 
L 288.843695 65.248984 
L 289.537732 82.374997 
L 290.925806 125.024013 
L 293.701955 218.757083 
L 294.395992 238.226297 
L 295.090029 254.278301 
L 295.784066 266.184804 
L 296.478104 273.384139 
L 297.172141 275.510277 
L 297.866178 272.414104 
L 298.560215 264.175661 
L 299.254252 251.106424 
L 299.948289 233.741143 
L 301.336364 189.255655 
L 304.112512 90.726346 
L 304.806549 70.813594 
L 305.500587 54.89964 
L 306.194624 43.788392 
L 306.888661 38.065779 
L 307.582698 38.065779 
L 308.276735 43.847823 
L 308.970772 55.187154 
L 309.664809 71.579114 
L 311.052884 116.227911 
L 313.829032 219.920547 
L 314.523069 241.100674 
L 315.217107 257.924883 
L 315.911144 269.463737 
L 316.605181 275.052959 
L 317.299218 274.335259 
L 317.993255 267.286791 
L 318.687292 254.226191 
L 319.381329 235.805104 
L 320.769404 186.966255 
L 322.851515 104.445105 
L 323.545552 80.600341 
L 324.239589 60.995431 
L 324.933627 46.7942 
L 325.627664 38.867019 
L 326.321701 37.73351 
L 327.015738 43.524234 
L 327.709775 55.964322 
L 328.403812 74.380791 
L 329.791887 124.671718 
L 331.873998 210.472052 
L 332.568035 234.915816 
L 333.262072 254.589748 
L 333.956109 268.227807 
L 334.650147 274.922319 
L 335.344184 274.188969 
L 336.038221 266.00663 
L 336.732258 250.828618 
L 337.426295 229.563673 
L 338.81437 174.362817 
L 340.896481 87.263514 
L 341.590518 64.780643 
L 342.284555 48.348846 
L 342.978592 39.124869 
L 343.67263 37.79509 
L 344.366667 44.519021 
L 345.060704 58.907512 
L 345.754741 80.038309 
L 347.142815 136.525418 
L 349.224927 226.645792 
L 349.918964 249.589834 
L 350.613001 265.934909 
L 351.307038 274.44871 
L 352.001075 274.44871 
L 352.695112 265.86293 
L 353.38915 249.247366 
L 354.083187 225.757415 
L 355.471261 165.288489 
L 356.859335 101.912403 
L 357.553372 75.111957 
L 358.24741 54.425233 
L 358.941447 41.485364 
L 359.635484 37.351473 
L 360.329521 42.41546 
L 361.023558 56.358587 
L 361.717595 78.162809 
L 363.10567 138.23861 
L 364.493744 204.280877 
L 365.187781 232.974044 
L 365.881818 255.562252 
L 366.575855 270.162576 
L 367.269892 275.519524 
L 367.96393 271.120052 
L 368.657967 257.249851 
L 369.352004 234.984501 
L 370.740078 173.007089 
L 372.128152 105.268444 
L 372.82219 76.388487 
L 373.516227 54.28408 
L 374.210264 40.909282 
L 374.904301 37.488097 
L 375.598338 44.394609 
L 376.292375 61.104822 
L 376.986413 86.226502 
L 378.374487 152.509002 
L 379.762561 220.46063 
L 380.456598 247.387851 
L 381.150635 266.149299 
L 381.844673 274.976458 
L 382.53871 272.987556 
L 383.232747 260.284405 
L 383.926784 237.960321 
L 384.620821 208.015898 
L 387.39697 72.351822 
L 388.091007 50.637786 
L 388.785044 38.985873 
L 389.479081 38.58926 
L 390.173118 49.568357 
L 390.867155 70.940679 
L 391.561193 100.697879 
L 394.337341 239.805897 
L 395.031378 262.192533 
L 395.725415 274.01982 
L 396.419453 274.01982 
L 397.11349 262.108397 
L 397.807527 239.413625 
L 398.501564 208.180506 
L 401.277713 67.459435 
L 401.97175 46.8299 
L 402.665787 37.683293 
L 403.359824 41.066312 
L 404.053861 56.706661 
L 404.747898 83.020573 
L 406.135973 155.796731 
L 407.524047 229.130312 
L 408.218084 255.915248 
L 408.912121 271.851187 
L 409.606158 275.108552 
L 410.300196 265.240731 
L 410.994233 243.255913 
L 411.68827 211.527576 
L 414.464418 65.366606 
L 415.158456 44.994938 
L 415.852493 37.363803 
L 416.54653 43.437376 
L 417.240567 62.603448 
L 417.934604 92.720058 
L 420.710753 243.068098 
L 421.40479 265.681857 
L 422.098827 275.302409 
L 422.792864 270.691554 
L 423.486901 252.312177 
L 424.180938 222.298237 
L 426.957087 69.304379 
L 427.651124 46.581359 
L 428.345161 37.446075 
L 429.039198 43.124019 
L 429.733236 62.998576 
L 430.427273 94.660992 
L 433.203421 248.902932 
L 433.897458 269.434918 
L 434.591496 275.43746 
L 435.285533 266.042394 
L 435.97957 242.375529 
L 436.673607 207.438819 
L 438.755718 84.104292 
L 439.449756 54.99524 
L 440.143793 39.352192 
L 440.83783 39.352192 
L 441.531867 55.091077 
L 442.225904 84.540469 
L 443.613978 167.564043 
L 444.308016 209.90146 
L 445.002053 244.986549 
L 445.69609 267.941665 
L 446.390127 275.518158 
L 447.084164 266.571103 
L 447.778201 242.248948 
L 448.472239 205.865096 
L 450.55435 79.131151 
L 451.248387 51.060331 
L 451.942424 37.987461 
L 452.636461 41.87625 
L 453.330499 62.26692 
L 454.024536 96.308958 
L 456.106647 225.980063 
L 456.800684 257.249851 
L 457.494721 273.715777 
L 458.188759 272.854405 
L 458.882796 254.693102 
L 459.576833 221.840903 
L 462.352981 57.411422 
L 463.047019 39.62852 
L 463.741056 39.646375 
L 464.435093 57.563931 
L 465.12913 90.726346 
L 467.211241 224.188672 
L 467.905279 256.858895 
L 468.599316 273.84071 
L 469.293353 272.372438 
L 469.98739 252.582417 
L 470.681427 217.506968 
L 472.763539 82.518154 
L 473.457576 51.749286 
L 474.151613 37.844207 
L 474.84565 43.152173 
L 475.539687 66.915094 
L 476.233724 105.350944 
L 478.315836 240.455757 
L 479.009873 267.152681 
L 479.70391 275.464357 
L 480.397947 263.901609 
L 481.091984 234.29558 
L 482.480059 142.764527 
L 483.174096 96.230126 
L 483.868133 59.860436 
L 484.56217 39.922438 
L 485.256207 39.922438 
L 485.950244 59.967456 
L 486.644282 96.703646 
L 488.726393 236.348442 
L 489.42043 265.499177 
L 490.114467 275.527126 
L 490.808504 264.561773 
L 491.502542 234.433732 
L 492.890616 140.227109 
L 493.584653 92.87448 
L 494.27869 56.856716 
L 494.972727 38.724677 
L 495.666764 41.851313 
L 496.360802 65.77997 
L 497.054839 106.260421 
L 498.442913 205.865096 
L 499.13695 246.735932 
L 499.830987 270.996044 
L 500.525024 274.063041 
L 501.219062 255.25741 
L 501.913099 217.976849 
L 503.99521 73.655465 
L 504.689247 45.124343 
L 505.383284 37.683293 
L 506.077322 52.8573 
L 506.771359 87.859681 
L 508.85347 234.433732 
L 509.547507 265.535841 
L 510.241544 275.470382 
L 510.935582 262.192533 
L 511.629619 228.186094 
L 513.71173 79.968257 
L 514.405767 47.893144 
L 515.099804 37.380616 
L 515.793842 50.637786 
L 516.487879 85.124404 
L 518.56999 234.778308 
L 519.264027 266.220246 
L 519.958065 275.335178 
L 520.652102 260.149974 
L 521.346139 223.661831 
L 523.42825 73.001189 
L 524.122287 43.937467 
L 524.816325 38.292558 
L 525.510362 57.360702 
L 526.204399 97.257684 
L 528.28651 247.62331 
L 528.980547 272.309426 
L 529.674585 272.309426 
L 530.368622 247.505687 
L 531.062659 203.107037 
L 532.450733 95.679299 
L 533.14477 55.866346 
L 533.838807 37.869708 
L 534.532845 45.719613 
L 535.226882 77.819154 
L 537.308993 233.253622 
L 538.00303 266.396483 
L 538.697067 275.13133 
L 539.391105 257.395482 
L 540.085142 217.035793 
L 542.167253 62.828905 
L 542.86129 39.38577 
L 543.555327 42.521524 
L 544.249365 71.643233 
L 544.943402 120.207294 
L 546.331476 229.419391 
L 547.025513 264.903836 
L 547.71955 275.313611 
L 548.413587 258.115604 
L 549.107625 217.192995 
L 550.495699 105.433475 
L 551.189736 60.777324 
L 551.883773 38.629158 
L 552.57781 44.332799 
L 553.271848 76.659405 
L 555.353959 237.426071 
L 556.047996 269.201969 
L 556.742033 273.84071 
L 557.43607 250.099835 
L 558.130108 203.610778 
L 559.518182 90.118117 
L 560.212219 50.806058 
L 560.906256 37.36566 
L 561.600293 53.219928 
L 562.29433 94.582913 
L 563.682405 209.411155 
L 564.376442 254.382347 
L 565.070479 274.940644 
L 565.764516 265.826844 
L 566.458553 229.202646 
L 568.540665 65.543441 
L 569.234702 39.540276 
L 569.928739 43.322496 
L 570.622776 76.050899 
L 572.704888 241.74061 
L 573.398925 271.599199 
L 574.092962 271.599199 
L 574.786999 241.613023 
L 575.481036 189.343454 
L 576.86911 74.712418 
L 577.563148 42.494908 
L 578.257185 40.334827 
L 578.951222 68.931668 
L 579.645259 120.816929 
L 581.033333 236.888771 
L 581.72737 270.026145 
L 582.421408 272.678282 
L 583.115445 244.002564 
L 583.809482 191.619282 
L 585.197556 74.845406 
L 585.891593 42.232429 
L 586.58563 40.799156 
L 587.279668 71.067965 
L 587.973705 124.847828 
L 589.361779 241.485236 
L 590.055816 272.051248 
L 590.749853 270.509464 
L 591.443891 237.157801 
L 593.526002 65.898554 
L 594.220039 39.046958 
L 594.914076 45.353322 
L 595.608113 83.164511 
L 597.690225 253.964781 
L 598.384262 275.248535 
L 599.078299 262.401784 
L 599.772336 218.990441 
L 601.160411 95.52224 
L 601.854448 51.231086 
L 602.548485 37.547759 
L 603.242522 58.593993 
L 603.936559 108.340592 
L 605.324633 231.636254 
L 606.018671 268.844587 
L 606.712708 272.796313 
L 607.406745 242.185582 
L 609.488856 66.375019 
L 610.182893 38.82359 
L 610.876931 46.652048 
L 611.570968 87.635814 
L 612.959042 213.541947 
L 613.653079 260.284405 
L 614.347116 275.393161 
L 615.041153 254.1218 
L 615.735191 202.854795 
L 617.123265 77.476655 
L 617.817302 42.052691 
L 618.511339 42.052691 
L 619.205376 77.613515 
L 621.287488 255.155331 
L 621.981525 275.494024 
L 622.675562 258.352658 
L 623.369599 209.00171 
L 624.757674 81.094462 
L 625.451711 43.152173 
L 626.145748 41.319791 
L 626.839785 76.320875 
L 628.921896 255.864995 
L 629.615934 275.529928 
L 630.309971 256.612626 
L 631.004008 205.115965 
L 632.392082 76.320875 
L 633.086119 41.111789 
L 633.780156 43.729226 
L 634.474194 83.452903 
L 635.862268 214.262019 
L 636.556305 262.108397 
L 637.250342 274.865671 
L 637.944379 248.14995 
L 638.638416 190.74557 
L 639.332454 121.776994 
L 640.026491 64.373676 
L 640.720528 37.913603 
L 641.414565 51.445922 
L 642.108602 100.536497 
L 643.496676 232.693745 
L 644.190714 270.794127 
L 644.884751 269.832336 
L 645.578788 229.995485 
L 646.966862 96.703646 
L 647.660899 49.128676 
L 648.354936 38.656103 
L 649.048974 69.055699 
L 651.131085 255.053019 
L 651.825122 275.529928 
L 652.519159 254.174024 
L 653.213196 198.359228 
L 654.601271 67.096069 
L 655.295308 38.159213 
L 655.989345 51.273929 
L 656.683382 101.912403 
L 658.071457 236.753972 
L 658.765494 272.618342 
L 659.459531 266.675098 
L 660.153568 220.92209 
L 661.541642 84.249515 
L 662.235679 42.901188 
L 662.929717 42.901188 
L 663.623754 84.394907 
L 665.011828 221.840903 
L 665.705865 267.353454 
L 666.399902 271.985173 
L 667.093939 233.880026 
L 668.482014 96.15133 
L 669.176051 47.668739 
L 669.870088 39.754947 
L 670.564125 75.513219 
L 672.646237 263.82274 
L 673.340274 273.651655 
L 674.034311 239.085388 
L 676.116422 49.487849 
L 676.810459 39.124869 
L 677.504497 73.721161 
L 679.586608 263.940949 
L 680.280645 273.435641 
L 680.974682 237.55992 
L 682.362757 97.257684 
L 683.056794 47.446638 
L 683.750831 40.253951 
L 684.444868 78.645858 
L 685.832942 220.229391 
L 686.526979 267.650209 
L 687.221017 271.070651 
L 687.915054 228.985516 
L 689.303128 86.300307 
L 689.997165 42.574959 
L 690.691202 44.425614 
L 691.385239 91.260577 
L 692.773314 234.364679 
L 693.467351 272.911881 
L 694.161388 264.292161 
L 694.855425 211.851256 
L 696.2435 69.678935 
L 696.937537 37.977985 
L 697.631574 54.80428 
L 698.325611 113.40368 
L 699.019648 189.782157 
L 699.713685 252.47449 
L 700.407722 275.502711 
L 701.10176 249.190096 
L 701.795797 184.309613 
L 702.489834 107.756329 
L 703.183871 51.445922 
L 703.877908 39.001041 
L 704.571945 75.781679 
L 705.96002 221.458733 
L 706.654057 269.054219 
L 707.348094 269.054219 
L 708.042131 221.305597 
L 709.430205 74.978586 
L 710.124242 38.710824 
L 710.81828 52.767252 
L 711.512317 111.282367 
L 712.206354 189.255655 
L 712.900391 253.171962 
L 713.594428 275.401845 
L 714.288465 246.197761 
L 716.370577 47.154093 
L 717.064614 41.485364 
L 717.758651 86.079015 
L 719.146725 234.847085 
L 719.840762 273.69985 
L 720.5348 260.860579 
L 721.228837 201.843384 
L 721.922874 122.651923 
L 722.616911 58.386131 
L 723.310948 37.690257 
L 724.004985 69.92966 
L 725.39306 218.834906 
L 726.087097 268.874733 
L 726.781134 268.384474 
L 727.475171 217.428528 
L 728.863245 68.191814 
L 729.557283 37.48358 
L 730.25132 60.831766 
L 730.945357 127.764074 
L 731.639394 207.851169 
L 732.333431 264.485059 
L 733.027468 271.622446 
L 733.721505 225.831672 
L 735.10958 74.05037 
L 735.803617 38.096297 
L 736.497654 56.957046 
L 737.191691 122.039261 
L 737.885728 203.191063 
L 738.579765 262.609477 
L 739.273803 272.455498 
L 739.96784 227.967181 
L 741.355914 74.778888 
L 742.049951 38.116991 
L 742.743988 57.310041 
L 743.438025 123.44106 
L 744.132063 205.28264 
L 744.8261 263.980226 
L 745.520137 271.505534 
L 746.214174 224.113528 
L 747.602248 70.244211 
L 748.296285 37.511732 
L 748.990323 61.988003 
L 749.68436 132.038165 
L 750.378397 213.942325 
L 751.072434 268.069496 
L 751.766471 268.069496 
L 752.460508 213.782275 
L 753.848583 61.324277 
L 754.54262 37.623758 
L 755.236657 72.157975 
L 756.624731 228.25898 
L 757.318768 273.024982 
L 758.012805 260.194845 
L 758.706843 195.955772 
L 759.40088 112.044168 
L 760.094917 50.138949 
L 760.788954 41.157537 
L 761.482991 89.73924 
L 762.871065 246.137699 
L 763.565103 275.529333 
L 764.25914 244.986549 
L 765.647214 87.710396 
L 766.341251 40.416795 
L 767.035288 51.967823 
L 767.729326 116.658116 
L 768.423363 201.674439 
L 769.1174 263.664243 
L 769.811437 270.84501 
L 770.505474 219.378633 
L 771.893548 62.378875 
L 772.587586 37.669574 
L 773.281623 74.31461 
L 774.669697 234.29558 
L 775.363734 274.669745 
L 776.057771 253.490632 
L 776.751808 181.638214 
L 777.445846 96.545665 
L 778.139883 42.764089 
L 778.83392 48.618903 
L 779.527957 111.197855 
L 780.221994 197.674451 
L 780.916031 262.443448 
L 781.610068 271.169183 
L 782.304106 219.068153 
L 783.69218 60.289877 
L 784.386217 38.148553 
L 785.080254 79.20066 
L 786.468328 241.357248 
L 787.162366 275.491677 
L 787.856403 245.53419 
L 789.244477 83.38074 
L 789.938514 38.794983 
L 790.632551 58.024594 
L 791.326588 130.787881 
L 792.020626 217.585372 
L 792.714663 271.070651 
L 793.4087 261.896968 
L 794.102737 194.920076 
L 794.796774 106.758008 
L 795.490811 45.854765 
L 796.184848 45.854765 
L 796.878886 106.924105 
L 797.572923 195.438337 
L 798.26696 262.401784 
L 798.960997 270.561825 
L 799.655034 215.217823 
L 800.349071 127.055347 
L 801.043109 55.235281 
L 801.737146 39.998661 
L 802.431183 90.042263 
L 803.819257 253.065283 
L 804.513294 274.269803 
L 805.207331 228.913053 
L 806.595406 63.91182 
L 807.289443 37.844207 
L 807.98348 79.270215 
L 809.371554 245.53419 
L 810.065591 275.37961 
L 810.759629 237.02338 
L 812.147703 69.92966 
L 812.84174 37.367586 
L 813.535777 73.589817 
L 814.923851 241.293179 
L 815.617889 275.530909 
L 816.311926 240.455757 
L 817.7 72.222541 
L 817.7 72.222541 
" clip-path="url(#p858fed017a)" style="fill: none; stroke: #1f77b4; stroke-width: 1.5; stroke-linecap: square"/>
   </g>
   <g id="patch_3">
    <path d="M 72.2 287.44 
L 72.2 25.44 
" style="fill: none; stroke: #000000; stroke-width: 0.8; stroke-linejoin: miter; stroke-linecap: square"/>
   </g>
   <g id="patch_4">
    <path d="M 853.2 287.44 
L 853.2 25.44 
" style="fill: none; stroke: #000000; stroke-width: 0.8; stroke-linejoin: miter; stroke-linecap: square"/>
   </g>
   <g id="patch_5">
    <path d="M 72.2 287.44 
L 853.2 287.44 
" style="fill: none; stroke: #000000; stroke-width: 0.8; stroke-linejoin: miter; stroke-linecap: square"/>
   </g>
   <g id="patch_6">
    <path d="M 72.2 25.44 
L 853.2 25.44 
" style="fill: none; stroke: #000000; stroke-width: 0.8; stroke-linejoin: miter; stroke-linecap: square"/>
   </g>
   <g id="text_18">
    <!-- CSS Modulated Signal in Time Domain Symbol 0 -->
    <g transform="translate(317.855312 19.44) scale(0.12 -0.12)">
     <defs>
      <path id="DejaVuSans-43" d="M 4122 4306 
L 4122 3641 
Q 3803 3938 3442 4084 
Q 3081 4231 2675 4231 
Q 1875 4231 1450 3742 
Q 1025 3253 1025 2328 
Q 1025 1406 1450 917 
Q 1875 428 2675 428 
Q 3081 428 3442 575 
Q 3803 722 4122 1019 
L 4122 359 
Q 3791 134 3420 21 
Q 3050 -91 2638 -91 
Q 1578 -91 968 557 
Q 359 1206 359 2328 
Q 359 3453 968 4101 
Q 1578 4750 2638 4750 
Q 3056 4750 3426 4639 
Q 3797 4528 4122 4306 
z
" transform="scale(0.015625)"/>
      <path id="DejaVuSans-53" d="M 3425 4513 
L 3425 3897 
Q 3066 4069 2747 4153 
Q 2428 4238 2131 4238 
Q 1616 4238 1336 4038 
Q 1056 3838 1056 3469 
Q 1056 3159 1242 3001 
Q 1428 2844 1947 2747 
L 2328 2669 
Q 3034 2534 3370 2195 
Q 3706 1856 3706 1288 
Q 3706 609 3251 259 
Q 2797 -91 1919 -91 
Q 1588 -91 1214 -16 
Q 841 59 441 206 
L 441 856 
Q 825 641 1194 531 
Q 1563 422 1919 422 
Q 2459 422 2753 634 
Q 3047 847 3047 1241 
Q 3047 1584 2836 1778 
Q 2625 1972 2144 2069 
L 1759 2144 
Q 1053 2284 737 2584 
Q 422 2884 422 3419 
Q 422 4038 858 4394 
Q 1294 4750 2059 4750 
Q 2388 4750 2728 4690 
Q 3069 4631 3425 4513 
z
" transform="scale(0.015625)"/>
      <path id="DejaVuSans-4d" d="M 628 4666 
L 1569 4666 
L 2759 1491 
L 3956 4666 
L 4897 4666 
L 4897 0 
L 4281 0 
L 4281 4097 
L 3078 897 
L 2444 897 
L 1241 4097 
L 1241 0 
L 628 0 
L 628 4666 
z
" transform="scale(0.015625)"/>
      <path id="DejaVuSans-6f" d="M 1959 3097 
Q 1497 3097 1228 2736 
Q 959 2375 959 1747 
Q 959 1119 1226 758 
Q 1494 397 1959 397 
Q 2419 397 2687 759 
Q 2956 1122 2956 1747 
Q 2956 2369 2687 2733 
Q 2419 3097 1959 3097 
z
M 1959 3584 
Q 2709 3584 3137 3096 
Q 3566 2609 3566 1747 
Q 3566 888 3137 398 
Q 2709 -91 1959 -91 
Q 1206 -91 779 398 
Q 353 888 353 1747 
Q 353 2609 779 3096 
Q 1206 3584 1959 3584 
z
" transform="scale(0.015625)"/>
      <path id="DejaVuSans-61" d="M 2194 1759 
Q 1497 1759 1228 1600 
Q 959 1441 959 1056 
Q 959 750 1161 570 
Q 1363 391 1709 391 
Q 2188 391 2477 730 
Q 2766 1069 2766 1631 
L 2766 1759 
L 2194 1759 
z
M 3341 1997 
L 3341 0 
L 2766 0 
L 2766 531 
Q 2569 213 2275 61 
Q 1981 -91 1556 -91 
Q 1019 -91 701 211 
Q 384 513 384 1019 
Q 384 1609 779 1909 
Q 1175 2209 1959 2209 
L 2766 2209 
L 2766 2266 
Q 2766 2663 2505 2880 
Q 2244 3097 1772 3097 
Q 1472 3097 1187 3025 
Q 903 2953 641 2809 
L 641 3341 
Q 956 3463 1253 3523 
Q 1550 3584 1831 3584 
Q 2591 3584 2966 3190 
Q 3341 2797 3341 1997 
z
" transform="scale(0.015625)"/>
      <path id="DejaVuSans-67" d="M 2906 1791 
Q 2906 2416 2648 2759 
Q 2391 3103 1925 3103 
Q 1463 3103 1205 2759 
Q 947 2416 947 1791 
Q 947 1169 1205 825 
Q 1463 481 1925 481 
Q 2391 481 2648 825 
Q 2906 1169 2906 1791 
z
M 3481 434 
Q 3481 -459 3084 -895 
Q 2688 -1331 1869 -1331 
Q 1566 -1331 1297 -1286 
Q 1028 -1241 775 -1147 
L 775 -588 
Q 1028 -725 1275 -790 
Q 1522 -856 1778 -856 
Q 2344 -856 2625 -561 
Q 2906 -266 2906 331 
L 2906 616 
Q 2728 306 2450 153 
Q 2172 0 1784 0 
Q 1141 0 747 490 
Q 353 981 353 1791 
Q 353 2603 747 3093 
Q 1141 3584 1784 3584 
Q 2172 3584 2450 3431 
Q 2728 3278 2906 2969 
L 2906 3500 
L 3481 3500 
L 3481 434 
z
" transform="scale(0.015625)"/>
      <path id="DejaVuSans-6e" d="M 3513 2113 
L 3513 0 
L 2938 0 
L 2938 2094 
Q 2938 2591 2744 2837 
Q 2550 3084 2163 3084 
Q 1697 3084 1428 2787 
Q 1159 2491 1159 1978 
L 1159 0 
L 581 0 
L 581 3500 
L 1159 3500 
L 1159 2956 
Q 1366 3272 1645 3428 
Q 1925 3584 2291 3584 
Q 2894 3584 3203 3211 
Q 3513 2838 3513 2113 
z
" transform="scale(0.015625)"/>
      <path id="DejaVuSans-44" d="M 1259 4147 
L 1259 519 
L 2022 519 
Q 2988 519 3436 956 
Q 3884 1394 3884 2338 
Q 3884 3275 3436 3711 
Q 2988 4147 2022 4147 
L 1259 4147 
z
M 628 4666 
L 1925 4666 
Q 3281 4666 3915 4102 
Q 4550 3538 4550 2338 
Q 4550 1131 3912 565 
Q 3275 0 1925 0 
L 628 0 
L 628 4666 
z
" transform="scale(0.015625)"/>
      <path id="DejaVuSans-79" d="M 2059 -325 
Q 1816 -950 1584 -1140 
Q 1353 -1331 966 -1331 
L 506 -1331 
L 506 -850 
L 844 -850 
Q 1081 -850 1212 -737 
Q 1344 -625 1503 -206 
L 1606 56 
L 191 3500 
L 800 3500 
L 1894 763 
L 2988 3500 
L 3597 3500 
L 2059 -325 
z
" transform="scale(0.015625)"/>
      <path id="DejaVuSans-62" d="M 3116 1747 
Q 3116 2381 2855 2742 
Q 2594 3103 2138 3103 
Q 1681 3103 1420 2742 
Q 1159 2381 1159 1747 
Q 1159 1113 1420 752 
Q 1681 391 2138 391 
Q 2594 391 2855 752 
Q 3116 1113 3116 1747 
z
M 1159 2969 
Q 1341 3281 1617 3432 
Q 1894 3584 2278 3584 
Q 2916 3584 3314 3078 
Q 3713 2572 3713 1747 
Q 3713 922 3314 415 
Q 2916 -91 2278 -91 
Q 1894 -91 1617 61 
Q 1341 213 1159 525 
L 1159 0 
L 581 0 
L 581 4863 
L 1159 4863 
L 1159 2969 
z
" transform="scale(0.015625)"/>
     </defs>
     <use xlink:href="#DejaVuSans-43"/>
     <use xlink:href="#DejaVuSans-53" transform="translate(69.824219 0)"/>
     <use xlink:href="#DejaVuSans-53" transform="translate(133.300781 0)"/>
     <use xlink:href="#DejaVuSans-20" transform="translate(196.777344 0)"/>
     <use xlink:href="#DejaVuSans-4d" transform="translate(228.564453 0)"/>
     <use xlink:href="#DejaVuSans-6f" transform="translate(314.84375 0)"/>
     <use xlink:href="#DejaVuSans-64" transform="translate(376.025391 0)"/>
     <use xlink:href="#DejaVuSans-75" transform="translate(439.501953 0)"/>
     <use xlink:href="#DejaVuSans-6c" transform="translate(502.880859 0)"/>
     <use xlink:href="#DejaVuSans-61" transform="translate(530.664062 0)"/>
     <use xlink:href="#DejaVuSans-74" transform="translate(591.943359 0)"/>
     <use xlink:href="#DejaVuSans-65" transform="translate(631.152344 0)"/>
     <use xlink:href="#DejaVuSans-64" transform="translate(692.675781 0)"/>
     <use xlink:href="#DejaVuSans-20" transform="translate(756.152344 0)"/>
     <use xlink:href="#DejaVuSans-53" transform="translate(787.939453 0)"/>
     <use xlink:href="#DejaVuSans-69" transform="translate(851.416016 0)"/>
     <use xlink:href="#DejaVuSans-67" transform="translate(879.199219 0)"/>
     <use xlink:href="#DejaVuSans-6e" transform="translate(942.675781 0)"/>
     <use xlink:href="#DejaVuSans-61" transform="translate(1006.054688 0)"/>
     <use xlink:href="#DejaVuSans-6c" transform="translate(1067.333984 0)"/>
     <use xlink:href="#DejaVuSans-20" transform="translate(1095.117188 0)"/>
     <use xlink:href="#DejaVuSans-69" transform="translate(1126.904297 0)"/>
     <use xlink:href="#DejaVuSans-6e" transform="translate(1154.6875 0)"/>
     <use xlink:href="#DejaVuSans-20" transform="translate(1218.066406 0)"/>
     <use xlink:href="#DejaVuSans-54" transform="translate(1249.853516 0)"/>
     <use xlink:href="#DejaVuSans-69" transform="translate(1307.8125 0)"/>
     <use xlink:href="#DejaVuSans-6d" transform="translate(1335.595703 0)"/>
     <use xlink:href="#DejaVuSans-65" transform="translate(1433.007812 0)"/>
     <use xlink:href="#DejaVuSans-20" transform="translate(1494.53125 0)"/>
     <use xlink:href="#DejaVuSans-44" transform="translate(1526.318359 0)"/>
     <use xlink:href="#DejaVuSans-6f" transform="translate(1603.320312 0)"/>
     <use xlink:href="#DejaVuSans-6d" transform="translate(1664.501953 0)"/>
     <use xlink:href="#DejaVuSans-61" transform="translate(1761.914062 0)"/>
     <use xlink:href="#DejaVuSans-69" transform="translate(1823.193359 0)"/>
     <use xlink:href="#DejaVuSans-6e" transform="translate(1850.976562 0)"/>
     <use xlink:href="#DejaVuSans-20" transform="translate(1914.355469 0)"/>
     <use xlink:href="#DejaVuSans-53" transform="translate(1946.142578 0)"/>
     <use xlink:href="#DejaVuSans-79" transform="translate(2009.619141 0)"/>
     <use xlink:href="#DejaVuSans-6d" transform="translate(2068.798828 0)"/>
     <use xlink:href="#DejaVuSans-62" transform="translate(2166.210938 0)"/>
     <use xlink:href="#DejaVuSans-6f" transform="translate(2229.6875 0)"/>
     <use xlink:href="#DejaVuSans-6c" transform="translate(2290.869141 0)"/>
     <use xlink:href="#DejaVuSans-20" transform="translate(2318.652344 0)"/>
     <use xlink:href="#DejaVuSans-30" transform="translate(2350.439453 0)"/>
    </g>
   </g>
  </g>
  <g id="axes_2">
   <g id="patch_7">
    <path d="M 72.2 606.04 
L 853.2 606.04 
L 853.2 344.04 
L 72.2 344.04 
z
" style="fill: #ffffff"/>
   </g>
   <g id="matplotlib.axis_3">
    <g id="xtick_7">
     <g id="line2d_32">
      <path d="M 107.7 606.04 
L 107.7 344.04 
" clip-path="url(#pb44ab8c93d)" style="fill: none; stroke: #b0b0b0; stroke-width: 0.8; stroke-linecap: square"/>
     </g>
     <g id="line2d_33">
      <g>
       <use xlink:href="#mcbec46bd17" x="107.7" y="606.04" style="stroke: #000000; stroke-width: 0.8"/>
      </g>
     </g>
     <g id="text_19">
      <!-- 0.0 -->
      <g transform="translate(99.748437 620.638438) scale(0.1 -0.1)">
       <use xlink:href="#DejaVuSans-30"/>
       <use xlink:href="#DejaVuSans-2e" transform="translate(63.623047 0)"/>
       <use xlink:href="#DejaVuSans-30" transform="translate(95.410156 0)"/>
      </g>
     </g>
    </g>
    <g id="xtick_8">
     <g id="line2d_34">
      <path d="M 246.507429 606.04 
L 246.507429 344.04 
" clip-path="url(#pb44ab8c93d)" style="fill: none; stroke: #b0b0b0; stroke-width: 0.8; stroke-linecap: square"/>
     </g>
     <g id="line2d_35">
      <g>
       <use xlink:href="#mcbec46bd17" x="246.507429" y="606.04" style="stroke: #000000; stroke-width: 0.8"/>
      </g>
     </g>
     <g id="text_20">
      <!-- 0.2 -->
      <g transform="translate(238.555867 620.638438) scale(0.1 -0.1)">
       <use xlink:href="#DejaVuSans-30"/>
       <use xlink:href="#DejaVuSans-2e" transform="translate(63.623047 0)"/>
       <use xlink:href="#DejaVuSans-32" transform="translate(95.410156 0)"/>
      </g>
     </g>
    </g>
    <g id="xtick_9">
     <g id="line2d_36">
      <path d="M 385.314858 606.04 
L 385.314858 344.04 
" clip-path="url(#pb44ab8c93d)" style="fill: none; stroke: #b0b0b0; stroke-width: 0.8; stroke-linecap: square"/>
     </g>
     <g id="line2d_37">
      <g>
       <use xlink:href="#mcbec46bd17" x="385.314858" y="606.04" style="stroke: #000000; stroke-width: 0.8"/>
      </g>
     </g>
     <g id="text_21">
      <!-- 0.4 -->
      <g transform="translate(377.363296 620.638438) scale(0.1 -0.1)">
       <use xlink:href="#DejaVuSans-30"/>
       <use xlink:href="#DejaVuSans-2e" transform="translate(63.623047 0)"/>
       <use xlink:href="#DejaVuSans-34" transform="translate(95.410156 0)"/>
      </g>
     </g>
    </g>
    <g id="xtick_10">
     <g id="line2d_38">
      <path d="M 524.122287 606.04 
L 524.122287 344.04 
" clip-path="url(#pb44ab8c93d)" style="fill: none; stroke: #b0b0b0; stroke-width: 0.8; stroke-linecap: square"/>
     </g>
     <g id="line2d_39">
      <g>
       <use xlink:href="#mcbec46bd17" x="524.122287" y="606.04" style="stroke: #000000; stroke-width: 0.8"/>
      </g>
     </g>
     <g id="text_22">
      <!-- 0.6 -->
      <g transform="translate(516.170725 620.638438) scale(0.1 -0.1)">
       <use xlink:href="#DejaVuSans-30"/>
       <use xlink:href="#DejaVuSans-2e" transform="translate(63.623047 0)"/>
       <use xlink:href="#DejaVuSans-36" transform="translate(95.410156 0)"/>
      </g>
     </g>
    </g>
    <g id="xtick_11">
     <g id="line2d_40">
      <path d="M 662.929717 606.04 
L 662.929717 344.04 
" clip-path="url(#pb44ab8c93d)" style="fill: none; stroke: #b0b0b0; stroke-width: 0.8; stroke-linecap: square"/>
     </g>
     <g id="line2d_41">
      <g>
       <use xlink:href="#mcbec46bd17" x="662.929717" y="606.04" style="stroke: #000000; stroke-width: 0.8"/>
      </g>
     </g>
     <g id="text_23">
      <!-- 0.8 -->
      <g transform="translate(654.978154 620.638438) scale(0.1 -0.1)">
       <use xlink:href="#DejaVuSans-30"/>
       <use xlink:href="#DejaVuSans-2e" transform="translate(63.623047 0)"/>
       <use xlink:href="#DejaVuSans-38" transform="translate(95.410156 0)"/>
      </g>
     </g>
    </g>
    <g id="xtick_12">
     <g id="line2d_42">
      <path d="M 801.737146 606.04 
L 801.737146 344.04 
" clip-path="url(#pb44ab8c93d)" style="fill: none; stroke: #b0b0b0; stroke-width: 0.8; stroke-linecap: square"/>
     </g>
     <g id="line2d_43">
      <g>
       <use xlink:href="#mcbec46bd17" x="801.737146" y="606.04" style="stroke: #000000; stroke-width: 0.8"/>
      </g>
     </g>
     <g id="text_24">
      <!-- 1.0 -->
      <g transform="translate(793.785583 620.638438) scale(0.1 -0.1)">
       <use xlink:href="#DejaVuSans-31"/>
       <use xlink:href="#DejaVuSans-2e" transform="translate(63.623047 0)"/>
       <use xlink:href="#DejaVuSans-30" transform="translate(95.410156 0)"/>
      </g>
     </g>
    </g>
    <g id="text_25">
     <!-- Time [ms] -->
     <g transform="translate(437.500781 634.316563) scale(0.1 -0.1)">
      <use xlink:href="#DejaVuSans-54"/>
      <use xlink:href="#DejaVuSans-69" transform="translate(57.958984 0)"/>
      <use xlink:href="#DejaVuSans-6d" transform="translate(85.742188 0)"/>
      <use xlink:href="#DejaVuSans-65" transform="translate(183.154297 0)"/>
      <use xlink:href="#DejaVuSans-20" transform="translate(244.677734 0)"/>
      <use xlink:href="#DejaVuSans-5b" transform="translate(276.464844 0)"/>
      <use xlink:href="#DejaVuSans-6d" transform="translate(315.478516 0)"/>
      <use xlink:href="#DejaVuSans-73" transform="translate(412.890625 0)"/>
      <use xlink:href="#DejaVuSans-5d" transform="translate(464.990234 0)"/>
     </g>
    </g>
   </g>
   <g id="matplotlib.axis_4">
    <g id="ytick_10">
     <g id="line2d_44">
      <path d="M 72.2 589.362616 
L 853.2 589.362616 
" clip-path="url(#pb44ab8c93d)" style="fill: none; stroke: #b0b0b0; stroke-width: 0.8; stroke-linecap: square"/>
     </g>
     <g id="line2d_45">
      <g>
       <use xlink:href="#mf66cd2b389" x="72.2" y="589.362616" style="stroke: #000000; stroke-width: 0.8"/>
      </g>
     </g>
     <g id="text_26">
      <!-- −60000 -->
      <g transform="translate(25.007812 593.161835) scale(0.1 -0.1)">
       <use xlink:href="#DejaVuSans-2212"/>
       <use xlink:href="#DejaVuSans-36" transform="translate(83.789062 0)"/>
       <use xlink:href="#DejaVuSans-30" transform="translate(147.412109 0)"/>
       <use xlink:href="#DejaVuSans-30" transform="translate(211.035156 0)"/>
       <use xlink:href="#DejaVuSans-30" transform="translate(274.658203 0)"/>
       <use xlink:href="#DejaVuSans-30" transform="translate(338.28125 0)"/>
      </g>
     </g>
    </g>
    <g id="ytick_11">
     <g id="line2d_46">
      <path d="M 72.2 551.216273 
L 853.2 551.216273 
" clip-path="url(#pb44ab8c93d)" style="fill: none; stroke: #b0b0b0; stroke-width: 0.8; stroke-linecap: square"/>
     </g>
     <g id="line2d_47">
      <g>
       <use xlink:href="#mf66cd2b389" x="72.2" y="551.216273" style="stroke: #000000; stroke-width: 0.8"/>
      </g>
     </g>
     <g id="text_27">
      <!-- −40000 -->
      <g transform="translate(25.007812 555.015492) scale(0.1 -0.1)">
       <use xlink:href="#DejaVuSans-2212"/>
       <use xlink:href="#DejaVuSans-34" transform="translate(83.789062 0)"/>
       <use xlink:href="#DejaVuSans-30" transform="translate(147.412109 0)"/>
       <use xlink:href="#DejaVuSans-30" transform="translate(211.035156 0)"/>
       <use xlink:href="#DejaVuSans-30" transform="translate(274.658203 0)"/>
       <use xlink:href="#DejaVuSans-30" transform="translate(338.28125 0)"/>
      </g>
     </g>
    </g>
    <g id="ytick_12">
     <g id="line2d_48">
      <path d="M 72.2 513.06993 
L 853.2 513.06993 
" clip-path="url(#pb44ab8c93d)" style="fill: none; stroke: #b0b0b0; stroke-width: 0.8; stroke-linecap: square"/>
     </g>
     <g id="line2d_49">
      <g>
       <use xlink:href="#mf66cd2b389" x="72.2" y="513.06993" style="stroke: #000000; stroke-width: 0.8"/>
      </g>
     </g>
     <g id="text_28">
      <!-- −20000 -->
      <g transform="translate(25.007812 516.869149) scale(0.1 -0.1)">
       <use xlink:href="#DejaVuSans-2212"/>
       <use xlink:href="#DejaVuSans-32" transform="translate(83.789062 0)"/>
       <use xlink:href="#DejaVuSans-30" transform="translate(147.412109 0)"/>
       <use xlink:href="#DejaVuSans-30" transform="translate(211.035156 0)"/>
       <use xlink:href="#DejaVuSans-30" transform="translate(274.658203 0)"/>
       <use xlink:href="#DejaVuSans-30" transform="translate(338.28125 0)"/>
      </g>
     </g>
    </g>
    <g id="ytick_13">
     <g id="line2d_50">
      <path d="M 72.2 474.923587 
L 853.2 474.923587 
" clip-path="url(#pb44ab8c93d)" style="fill: none; stroke: #b0b0b0; stroke-width: 0.8; stroke-linecap: square"/>
     </g>
     <g id="line2d_51">
      <g>
       <use xlink:href="#mf66cd2b389" x="72.2" y="474.923587" style="stroke: #000000; stroke-width: 0.8"/>
      </g>
     </g>
     <g id="text_29">
      <!-- 0 -->
      <g transform="translate(58.8375 478.722805) scale(0.1 -0.1)">
       <use xlink:href="#DejaVuSans-30"/>
      </g>
     </g>
    </g>
    <g id="ytick_14">
     <g id="line2d_52">
      <path d="M 72.2 436.777243 
L 853.2 436.777243 
" clip-path="url(#pb44ab8c93d)" style="fill: none; stroke: #b0b0b0; stroke-width: 0.8; stroke-linecap: square"/>
     </g>
     <g id="line2d_53">
      <g>
       <use xlink:href="#mf66cd2b389" x="72.2" y="436.777243" style="stroke: #000000; stroke-width: 0.8"/>
      </g>
     </g>
     <g id="text_30">
      <!-- 20000 -->
      <g transform="translate(33.3875 440.576462) scale(0.1 -0.1)">
       <use xlink:href="#DejaVuSans-32"/>
       <use xlink:href="#DejaVuSans-30" transform="translate(63.623047 0)"/>
       <use xlink:href="#DejaVuSans-30" transform="translate(127.246094 0)"/>
       <use xlink:href="#DejaVuSans-30" transform="translate(190.869141 0)"/>
       <use xlink:href="#DejaVuSans-30" transform="translate(254.492188 0)"/>
      </g>
     </g>
    </g>
    <g id="ytick_15">
     <g id="line2d_54">
      <path d="M 72.2 398.6309 
L 853.2 398.6309 
" clip-path="url(#pb44ab8c93d)" style="fill: none; stroke: #b0b0b0; stroke-width: 0.8; stroke-linecap: square"/>
     </g>
     <g id="line2d_55">
      <g>
       <use xlink:href="#mf66cd2b389" x="72.2" y="398.6309" style="stroke: #000000; stroke-width: 0.8"/>
      </g>
     </g>
     <g id="text_31">
      <!-- 40000 -->
      <g transform="translate(33.3875 402.430119) scale(0.1 -0.1)">
       <use xlink:href="#DejaVuSans-34"/>
       <use xlink:href="#DejaVuSans-30" transform="translate(63.623047 0)"/>
       <use xlink:href="#DejaVuSans-30" transform="translate(127.246094 0)"/>
       <use xlink:href="#DejaVuSans-30" transform="translate(190.869141 0)"/>
       <use xlink:href="#DejaVuSans-30" transform="translate(254.492188 0)"/>
      </g>
     </g>
    </g>
    <g id="ytick_16">
     <g id="line2d_56">
      <path d="M 72.2 360.484557 
L 853.2 360.484557 
" clip-path="url(#pb44ab8c93d)" style="fill: none; stroke: #b0b0b0; stroke-width: 0.8; stroke-linecap: square"/>
     </g>
     <g id="line2d_57">
      <g>
       <use xlink:href="#mf66cd2b389" x="72.2" y="360.484557" style="stroke: #000000; stroke-width: 0.8"/>
      </g>
     </g>
     <g id="text_32">
      <!-- 60000 -->
      <g transform="translate(33.3875 364.283776) scale(0.1 -0.1)">
       <use xlink:href="#DejaVuSans-36"/>
       <use xlink:href="#DejaVuSans-30" transform="translate(63.623047 0)"/>
       <use xlink:href="#DejaVuSans-30" transform="translate(127.246094 0)"/>
       <use xlink:href="#DejaVuSans-30" transform="translate(190.869141 0)"/>
       <use xlink:href="#DejaVuSans-30" transform="translate(254.492188 0)"/>
      </g>
     </g>
    </g>
    <g id="text_33">
     <!-- Frequency [Hz] -->
     <g transform="translate(18.928125 512.744687) rotate(-90) scale(0.1 -0.1)">
      <defs>
       <path id="DejaVuSans-46" d="M 628 4666 
L 3309 4666 
L 3309 4134 
L 1259 4134 
L 1259 2759 
L 3109 2759 
L 3109 2228 
L 1259 2228 
L 1259 0 
L 628 0 
L 628 4666 
z
" transform="scale(0.015625)"/>
       <path id="DejaVuSans-72" d="M 2631 2963 
Q 2534 3019 2420 3045 
Q 2306 3072 2169 3072 
Q 1681 3072 1420 2755 
Q 1159 2438 1159 1844 
L 1159 0 
L 581 0 
L 581 3500 
L 1159 3500 
L 1159 2956 
Q 1341 3275 1631 3429 
Q 1922 3584 2338 3584 
Q 2397 3584 2469 3576 
Q 2541 3569 2628 3553 
L 2631 2963 
z
" transform="scale(0.015625)"/>
       <path id="DejaVuSans-71" d="M 947 1747 
Q 947 1113 1208 752 
Q 1469 391 1925 391 
Q 2381 391 2643 752 
Q 2906 1113 2906 1747 
Q 2906 2381 2643 2742 
Q 2381 3103 1925 3103 
Q 1469 3103 1208 2742 
Q 947 2381 947 1747 
z
M 2906 525 
Q 2725 213 2448 61 
Q 2172 -91 1784 -91 
Q 1150 -91 751 415 
Q 353 922 353 1747 
Q 353 2572 751 3078 
Q 1150 3584 1784 3584 
Q 2172 3584 2448 3432 
Q 2725 3281 2906 2969 
L 2906 3500 
L 3481 3500 
L 3481 -1331 
L 2906 -1331 
L 2906 525 
z
" transform="scale(0.015625)"/>
       <path id="DejaVuSans-63" d="M 3122 3366 
L 3122 2828 
Q 2878 2963 2633 3030 
Q 2388 3097 2138 3097 
Q 1578 3097 1268 2742 
Q 959 2388 959 1747 
Q 959 1106 1268 751 
Q 1578 397 2138 397 
Q 2388 397 2633 464 
Q 2878 531 3122 666 
L 3122 134 
Q 2881 22 2623 -34 
Q 2366 -91 2075 -91 
Q 1284 -91 818 406 
Q 353 903 353 1747 
Q 353 2603 823 3093 
Q 1294 3584 2113 3584 
Q 2378 3584 2631 3529 
Q 2884 3475 3122 3366 
z
" transform="scale(0.015625)"/>
       <path id="DejaVuSans-48" d="M 628 4666 
L 1259 4666 
L 1259 2753 
L 3553 2753 
L 3553 4666 
L 4184 4666 
L 4184 0 
L 3553 0 
L 3553 2222 
L 1259 2222 
L 1259 0 
L 628 0 
L 628 4666 
z
" transform="scale(0.015625)"/>
       <path id="DejaVuSans-7a" d="M 353 3500 
L 3084 3500 
L 3084 2975 
L 922 459 
L 3084 459 
L 3084 0 
L 275 0 
L 275 525 
L 2438 3041 
L 353 3041 
L 353 3500 
z
" transform="scale(0.015625)"/>
      </defs>
      <use xlink:href="#DejaVuSans-46"/>
      <use xlink:href="#DejaVuSans-72" transform="translate(50.269531 0)"/>
      <use xlink:href="#DejaVuSans-65" transform="translate(89.132812 0)"/>
      <use xlink:href="#DejaVuSans-71" transform="translate(150.65625 0)"/>
      <use xlink:href="#DejaVuSans-75" transform="translate(214.132812 0)"/>
      <use xlink:href="#DejaVuSans-65" transform="translate(277.511719 0)"/>
      <use xlink:href="#DejaVuSans-6e" transform="translate(339.035156 0)"/>
      <use xlink:href="#DejaVuSans-63" transform="translate(402.414062 0)"/>
      <use xlink:href="#DejaVuSans-79" transform="translate(457.394531 0)"/>
      <use xlink:href="#DejaVuSans-20" transform="translate(516.574219 0)"/>
      <use xlink:href="#DejaVuSans-5b" transform="translate(548.361328 0)"/>
      <use xlink:href="#DejaVuSans-48" transform="translate(587.375 0)"/>
      <use xlink:href="#DejaVuSans-7a" transform="translate(662.570312 0)"/>
      <use xlink:href="#DejaVuSans-5d" transform="translate(715.060547 0)"/>
     </g>
    </g>
   </g>
   <g id="line2d_58">
    <path d="M 107.7 594.130909 
L 817.7 355.949091 
L 817.7 355.949091 
" clip-path="url(#pb44ab8c93d)" style="fill: none; stroke: #1f77b4; stroke-width: 1.5; stroke-linecap: square"/>
   </g>
   <g id="patch_8">
    <path d="M 72.2 606.04 
L 72.2 344.04 
" style="fill: none; stroke: #000000; stroke-width: 0.8; stroke-linejoin: miter; stroke-linecap: square"/>
   </g>
   <g id="patch_9">
    <path d="M 853.2 606.04 
L 853.2 344.04 
" style="fill: none; stroke: #000000; stroke-width: 0.8; stroke-linejoin: miter; stroke-linecap: square"/>
   </g>
   <g id="patch_10">
    <path d="M 72.2 606.04 
L 853.2 606.04 
" style="fill: none; stroke: #000000; stroke-width: 0.8; stroke-linejoin: miter; stroke-linecap: square"/>
   </g>
   <g id="patch_11">
    <path d="M 72.2 344.04 
L 853.2 344.04 
" style="fill: none; stroke: #000000; stroke-width: 0.8; stroke-linejoin: miter; stroke-linecap: square"/>
   </g>
   <g id="text_34">
    <!-- Instantaneous Frequency of CSS Signal (Symbol 0) -->
    <g transform="translate(310.736875 338.04) scale(0.12 -0.12)">
     <defs>
      <path id="DejaVuSans-49" d="M 628 4666 
L 1259 4666 
L 1259 0 
L 628 0 
L 628 4666 
z
" transform="scale(0.015625)"/>
      <path id="DejaVuSans-66" d="M 2375 4863 
L 2375 4384 
L 1825 4384 
Q 1516 4384 1395 4259 
Q 1275 4134 1275 3809 
L 1275 3500 
L 2222 3500 
L 2222 3053 
L 1275 3053 
L 1275 0 
L 697 0 
L 697 3053 
L 147 3053 
L 147 3500 
L 697 3500 
L 697 3744 
Q 697 4328 969 4595 
Q 1241 4863 1831 4863 
L 2375 4863 
z
" transform="scale(0.015625)"/>
      <path id="DejaVuSans-28" d="M 1984 4856 
Q 1566 4138 1362 3434 
Q 1159 2731 1159 2009 
Q 1159 1288 1364 580 
Q 1569 -128 1984 -844 
L 1484 -844 
Q 1016 -109 783 600 
Q 550 1309 550 2009 
Q 550 2706 781 3412 
Q 1013 4119 1484 4856 
L 1984 4856 
z
" transform="scale(0.015625)"/>
      <path id="DejaVuSans-29" d="M 513 4856 
L 1013 4856 
Q 1481 4119 1714 3412 
Q 1947 2706 1947 2009 
Q 1947 1309 1714 600 
Q 1481 -109 1013 -844 
L 513 -844 
Q 928 -128 1133 580 
Q 1338 1288 1338 2009 
Q 1338 2731 1133 3434 
Q 928 4138 513 4856 
z
" transform="scale(0.015625)"/>
     </defs>
     <use xlink:href="#DejaVuSans-49"/>
     <use xlink:href="#DejaVuSans-6e" transform="translate(29.492188 0)"/>
     <use xlink:href="#DejaVuSans-73" transform="translate(92.871094 0)"/>
     <use xlink:href="#DejaVuSans-74" transform="translate(144.970703 0)"/>
     <use xlink:href="#DejaVuSans-61" transform="translate(184.179688 0)"/>
     <use xlink:href="#DejaVuSans-6e" transform="translate(245.458984 0)"/>
     <use xlink:href="#DejaVuSans-74" transform="translate(308.837891 0)"/>
     <use xlink:href="#DejaVuSans-61" transform="translate(348.046875 0)"/>
     <use xlink:href="#DejaVuSans-6e" transform="translate(409.326172 0)"/>
     <use xlink:href="#DejaVuSans-65" transform="translate(472.705078 0)"/>
     <use xlink:href="#DejaVuSans-6f" transform="translate(534.228516 0)"/>
     <use xlink:href="#DejaVuSans-75" transform="translate(595.410156 0)"/>
     <use xlink:href="#DejaVuSans-73" transform="translate(658.789062 0)"/>
     <use xlink:href="#DejaVuSans-20" transform="translate(710.888672 0)"/>
     <use xlink:href="#DejaVuSans-46" transform="translate(742.675781 0)"/>
     <use xlink:href="#DejaVuSans-72" transform="translate(792.945312 0)"/>
     <use xlink:href="#DejaVuSans-65" transform="translate(831.808594 0)"/>
     <use xlink:href="#DejaVuSans-71" transform="translate(893.332031 0)"/>
     <use xlink:href="#DejaVuSans-75" transform="translate(956.808594 0)"/>
     <use xlink:href="#DejaVuSans-65" transform="translate(1020.1875 0)"/>
     <use xlink:href="#DejaVuSans-6e" transform="translate(1081.710938 0)"/>
     <use xlink:href="#DejaVuSans-63" transform="translate(1145.089844 0)"/>
     <use xlink:href="#DejaVuSans-79" transform="translate(1200.070312 0)"/>
     <use xlink:href="#DejaVuSans-20" transform="translate(1259.25 0)"/>
     <use xlink:href="#DejaVuSans-6f" transform="translate(1291.037109 0)"/>
     <use xlink:href="#DejaVuSans-66" transform="translate(1352.21875 0)"/>
     <use xlink:href="#DejaVuSans-20" transform="translate(1387.423828 0)"/>
     <use xlink:href="#DejaVuSans-43" transform="translate(1419.210938 0)"/>
     <use xlink:href="#DejaVuSans-53" transform="translate(1489.035156 0)"/>
     <use xlink:href="#DejaVuSans-53" transform="translate(1552.511719 0)"/>
     <use xlink:href="#DejaVuSans-20" transform="translate(1615.988281 0)"/>
     <use xlink:href="#DejaVuSans-53" transform="translate(1647.775391 0)"/>
     <use xlink:href="#DejaVuSans-69" transform="translate(1711.251953 0)"/>
     <use xlink:href="#DejaVuSans-67" transform="translate(1739.035156 0)"/>
     <use xlink:href="#DejaVuSans-6e" transform="translate(1802.511719 0)"/>
     <use xlink:href="#DejaVuSans-61" transform="translate(1865.890625 0)"/>
     <use xlink:href="#DejaVuSans-6c" transform="translate(1927.169922 0)"/>
     <use xlink:href="#DejaVuSans-20" transform="translate(1954.953125 0)"/>
     <use xlink:href="#DejaVuSans-28" transform="translate(1986.740234 0)"/>
     <use xlink:href="#DejaVuSans-53" transform="translate(2025.753906 0)"/>
     <use xlink:href="#DejaVuSans-79" transform="translate(2089.230469 0)"/>
     <use xlink:href="#DejaVuSans-6d" transform="translate(2148.410156 0)"/>
     <use xlink:href="#DejaVuSans-62" transform="translate(2245.822266 0)"/>
     <use xlink:href="#DejaVuSans-6f" transform="translate(2309.298828 0)"/>
     <use xlink:href="#DejaVuSans-6c" transform="translate(2370.480469 0)"/>
     <use xlink:href="#DejaVuSans-20" transform="translate(2398.263672 0)"/>
     <use xlink:href="#DejaVuSans-30" transform="translate(2430.050781 0)"/>
     <use xlink:href="#DejaVuSans-29" transform="translate(2493.673828 0)"/>
    </g>
   </g>
  </g>
 </g>
 <defs>
  <clipPath id="p858fed017a">
   <rect x="72.2" y="25.44" width="781" height="262"/>
  </clipPath>
  <clipPath id="pb44ab8c93d">
   <rect x="72.2" y="344.04" width="781" height="262"/>
  </clipPath>
 </defs>
</svg>
