<?xml version="1.0" encoding="utf-8" standalone="no"?>
<!DOCTYPE svg PUBLIC "-//W3C//DTD SVG 1.1//EN"
  "http://www.w3.org/Graphics/SVG/1.1/DTD/svg11.dtd">
<svg xmlns:xlink="http://www.w3.org/1999/xlink" width="1080pt" height="360pt" viewBox="0 0 1080 360" xmlns="http://www.w3.org/2000/svg" version="1.1">
 <metadata>
  <rdf:RDF xmlns:dc="http://purl.org/dc/elements/1.1/" xmlns:cc="http://creativecommons.org/ns#" xmlns:rdf="http://www.w3.org/1999/02/22-rdf-syntax-ns#">
   <cc:Work>
    <dc:type rdf:resource="http://purl.org/dc/dcmitype/StillImage"/>
    <dc:date>2025-11-02T15:21:00.317602</dc:date>
    <dc:format>image/svg+xml</dc:format>
    <dc:creator>
     <cc:Agent>
      <dc:title>Matplotlib v3.10.6, https://matplotlib.org/</dc:title>
     </cc:Agent>
    </dc:creator>
   </cc:Work>
  </rdf:RDF>
 </metadata>
 <defs>
  <style type="text/css">*{stroke-linejoin: round; stroke-linecap: butt}</style>
 </defs>
 <g id="figure_1">
  <g id="patch_1">
   <path d="M 0 360 
L 1080 360 
L 1080 0 
L 0 0 
z
" style="fill: #ffffff"/>
  </g>
  <g id="axes_1">
   <g id="patch_2">
    <path d="M 62.57 318.04 
L 529.785 318.04 
L 529.785 25.44 
L 62.57 25.44 
z
" style="fill: #ffffff"/>
   </g>
   <g id="matplotlib.axis_1">
    <g id="xtick_1">
     <g id="line2d_1">
      <path d="M 83.807045 318.04 
L 83.807045 25.44 
" clip-path="url(#pa6c84c2a1d)" style="fill: none; stroke: #b0b0b0; stroke-width: 0.8; stroke-linecap: square"/>
     </g>
     <g id="line2d_2">
      <defs>
       <path id="mbb74895b96" d="M 0 0 
L 0 3.5 
" style="stroke: #000000; stroke-width: 0.8"/>
      </defs>
      <g>
       <use xlink:href="#mbb74895b96" x="83.807045" y="318.04" style="stroke: #000000; stroke-width: 0.8"/>
      </g>
     </g>
     <g id="text_1">
      <!-- 0.0 -->
      <g transform="translate(75.855483 332.638438) scale(0.1 -0.1)">
       <defs>
        <path id="DejaVuSans-30" d="M 2034 4250 
Q 1547 4250 1301 3770 
Q 1056 3291 1056 2328 
Q 1056 1369 1301 889 
Q 1547 409 2034 409 
Q 2525 409 2770 889 
Q 3016 1369 3016 2328 
Q 3016 3291 2770 3770 
Q 2525 4250 2034 4250 
z
M 2034 4750 
Q 2819 4750 3233 4129 
Q 3647 3509 3647 2328 
Q 3647 1150 3233 529 
Q 2819 -91 2034 -91 
Q 1250 -91 836 529 
Q 422 1150 422 2328 
Q 422 3509 836 4129 
Q 1250 4750 2034 4750 
z
" transform="scale(0.015625)"/>
        <path id="DejaVuSans-2e" d="M 684 794 
L 1344 794 
L 1344 0 
L 684 0 
L 684 794 
z
" transform="scale(0.015625)"/>
       </defs>
       <use xlink:href="#DejaVuSans-30"/>
       <use xlink:href="#DejaVuSans-2e" transform="translate(63.623047 0)"/>
       <use xlink:href="#DejaVuSans-30" transform="translate(95.410156 0)"/>
      </g>
     </g>
    </g>
    <g id="xtick_2">
     <g id="line2d_3">
      <path d="M 166.845346 318.04 
L 166.845346 25.44 
" clip-path="url(#pa6c84c2a1d)" style="fill: none; stroke: #b0b0b0; stroke-width: 0.8; stroke-linecap: square"/>
     </g>
     <g id="line2d_4">
      <g>
       <use xlink:href="#mbb74895b96" x="166.845346" y="318.04" style="stroke: #000000; stroke-width: 0.8"/>
      </g>
     </g>
     <g id="text_2">
      <!-- 0.2 -->
      <g transform="translate(158.893784 332.638438) scale(0.1 -0.1)">
       <defs>
        <path id="DejaVuSans-32" d="M 1228 531 
L 3431 531 
L 3431 0 
L 469 0 
L 469 531 
Q 828 903 1448 1529 
Q 2069 2156 2228 2338 
Q 2531 2678 2651 2914 
Q 2772 3150 2772 3378 
Q 2772 3750 2511 3984 
Q 2250 4219 1831 4219 
Q 1534 4219 1204 4116 
Q 875 4013 500 3803 
L 500 4441 
Q 881 4594 1212 4672 
Q 1544 4750 1819 4750 
Q 2544 4750 2975 4387 
Q 3406 4025 3406 3419 
Q 3406 3131 3298 2873 
Q 3191 2616 2906 2266 
Q 2828 2175 2409 1742 
Q 1991 1309 1228 531 
z
" transform="scale(0.015625)"/>
       </defs>
       <use xlink:href="#DejaVuSans-30"/>
       <use xlink:href="#DejaVuSans-2e" transform="translate(63.623047 0)"/>
       <use xlink:href="#DejaVuSans-32" transform="translate(95.410156 0)"/>
      </g>
     </g>
    </g>
    <g id="xtick_3">
     <g id="line2d_5">
      <path d="M 249.883647 318.04 
L 249.883647 25.44 
" clip-path="url(#pa6c84c2a1d)" style="fill: none; stroke: #b0b0b0; stroke-width: 0.8; stroke-linecap: square"/>
     </g>
     <g id="line2d_6">
      <g>
       <use xlink:href="#mbb74895b96" x="249.883647" y="318.04" style="stroke: #000000; stroke-width: 0.8"/>
      </g>
     </g>
     <g id="text_3">
      <!-- 0.4 -->
      <g transform="translate(241.932085 332.638438) scale(0.1 -0.1)">
       <defs>
        <path id="DejaVuSans-34" d="M 2419 4116 
L 825 1625 
L 2419 1625 
L 2419 4116 
z
M 2253 4666 
L 3047 4666 
L 3047 1625 
L 3713 1625 
L 3713 1100 
L 3047 1100 
L 3047 0 
L 2419 0 
L 2419 1100 
L 313 1100 
L 313 1709 
L 2253 4666 
z
" transform="scale(0.015625)"/>
       </defs>
       <use xlink:href="#DejaVuSans-30"/>
       <use xlink:href="#DejaVuSans-2e" transform="translate(63.623047 0)"/>
       <use xlink:href="#DejaVuSans-34" transform="translate(95.410156 0)"/>
      </g>
     </g>
    </g>
    <g id="xtick_4">
     <g id="line2d_7">
      <path d="M 332.921948 318.04 
L 332.921948 25.44 
" clip-path="url(#pa6c84c2a1d)" style="fill: none; stroke: #b0b0b0; stroke-width: 0.8; stroke-linecap: square"/>
     </g>
     <g id="line2d_8">
      <g>
       <use xlink:href="#mbb74895b96" x="332.921948" y="318.04" style="stroke: #000000; stroke-width: 0.8"/>
      </g>
     </g>
     <g id="text_4">
      <!-- 0.6 -->
      <g transform="translate(324.970386 332.638438) scale(0.1 -0.1)">
       <defs>
        <path id="DejaVuSans-36" d="M 2113 2584 
Q 1688 2584 1439 2293 
Q 1191 2003 1191 1497 
Q 1191 994 1439 701 
Q 1688 409 2113 409 
Q 2538 409 2786 701 
Q 3034 994 3034 1497 
Q 3034 2003 2786 2293 
Q 2538 2584 2113 2584 
z
M 3366 4563 
L 3366 3988 
Q 3128 4100 2886 4159 
Q 2644 4219 2406 4219 
Q 1781 4219 1451 3797 
Q 1122 3375 1075 2522 
Q 1259 2794 1537 2939 
Q 1816 3084 2150 3084 
Q 2853 3084 3261 2657 
Q 3669 2231 3669 1497 
Q 3669 778 3244 343 
Q 2819 -91 2113 -91 
Q 1303 -91 875 529 
Q 447 1150 447 2328 
Q 447 3434 972 4092 
Q 1497 4750 2381 4750 
Q 2619 4750 2861 4703 
Q 3103 4656 3366 4563 
z
" transform="scale(0.015625)"/>
       </defs>
       <use xlink:href="#DejaVuSans-30"/>
       <use xlink:href="#DejaVuSans-2e" transform="translate(63.623047 0)"/>
       <use xlink:href="#DejaVuSans-36" transform="translate(95.410156 0)"/>
      </g>
     </g>
    </g>
    <g id="xtick_5">
     <g id="line2d_9">
      <path d="M 415.960249 318.04 
L 415.960249 25.44 
" clip-path="url(#pa6c84c2a1d)" style="fill: none; stroke: #b0b0b0; stroke-width: 0.8; stroke-linecap: square"/>
     </g>
     <g id="line2d_10">
      <g>
       <use xlink:href="#mbb74895b96" x="415.960249" y="318.04" style="stroke: #000000; stroke-width: 0.8"/>
      </g>
     </g>
     <g id="text_5">
      <!-- 0.8 -->
      <g transform="translate(408.008687 332.638438) scale(0.1 -0.1)">
       <defs>
        <path id="DejaVuSans-38" d="M 2034 2216 
Q 1584 2216 1326 1975 
Q 1069 1734 1069 1313 
Q 1069 891 1326 650 
Q 1584 409 2034 409 
Q 2484 409 2743 651 
Q 3003 894 3003 1313 
Q 3003 1734 2745 1975 
Q 2488 2216 2034 2216 
z
M 1403 2484 
Q 997 2584 770 2862 
Q 544 3141 544 3541 
Q 544 4100 942 4425 
Q 1341 4750 2034 4750 
Q 2731 4750 3128 4425 
Q 3525 4100 3525 3541 
Q 3525 3141 3298 2862 
Q 3072 2584 2669 2484 
Q 3125 2378 3379 2068 
Q 3634 1759 3634 1313 
Q 3634 634 3220 271 
Q 2806 -91 2034 -91 
Q 1263 -91 848 271 
Q 434 634 434 1313 
Q 434 1759 690 2068 
Q 947 2378 1403 2484 
z
M 1172 3481 
Q 1172 3119 1398 2916 
Q 1625 2713 2034 2713 
Q 2441 2713 2670 2916 
Q 2900 3119 2900 3481 
Q 2900 3844 2670 4047 
Q 2441 4250 2034 4250 
Q 1625 4250 1398 4047 
Q 1172 3844 1172 3481 
z
" transform="scale(0.015625)"/>
       </defs>
       <use xlink:href="#DejaVuSans-30"/>
       <use xlink:href="#DejaVuSans-2e" transform="translate(63.623047 0)"/>
       <use xlink:href="#DejaVuSans-38" transform="translate(95.410156 0)"/>
      </g>
     </g>
    </g>
    <g id="xtick_6">
     <g id="line2d_11">
      <path d="M 498.99855 318.04 
L 498.99855 25.44 
" clip-path="url(#pa6c84c2a1d)" style="fill: none; stroke: #b0b0b0; stroke-width: 0.8; stroke-linecap: square"/>
     </g>
     <g id="line2d_12">
      <g>
       <use xlink:href="#mbb74895b96" x="498.99855" y="318.04" style="stroke: #000000; stroke-width: 0.8"/>
      </g>
     </g>
     <g id="text_6">
      <!-- 1.0 -->
      <g transform="translate(491.046987 332.638438) scale(0.1 -0.1)">
       <defs>
        <path id="DejaVuSans-31" d="M 794 531 
L 1825 531 
L 1825 4091 
L 703 3866 
L 703 4441 
L 1819 4666 
L 2450 4666 
L 2450 531 
L 3481 531 
L 3481 0 
L 794 0 
L 794 531 
z
" transform="scale(0.015625)"/>
       </defs>
       <use xlink:href="#DejaVuSans-31"/>
       <use xlink:href="#DejaVuSans-2e" transform="translate(63.623047 0)"/>
       <use xlink:href="#DejaVuSans-30" transform="translate(95.410156 0)"/>
      </g>
     </g>
    </g>
    <g id="text_7">
     <!-- Time [ms] -->
     <g transform="translate(270.978281 346.316563) scale(0.1 -0.1)">
      <defs>
       <path id="DejaVuSans-54" d="M -19 4666 
L 3928 4666 
L 3928 4134 
L 2272 4134 
L 2272 0 
L 1638 0 
L 1638 4134 
L -19 4134 
L -19 4666 
z
" transform="scale(0.015625)"/>
       <path id="DejaVuSans-69" d="M 603 3500 
L 1178 3500 
L 1178 0 
L 603 0 
L 603 3500 
z
M 603 4863 
L 1178 4863 
L 1178 4134 
L 603 4134 
L 603 4863 
z
" transform="scale(0.015625)"/>
       <path id="DejaVuSans-6d" d="M 3328 2828 
Q 3544 3216 3844 3400 
Q 4144 3584 4550 3584 
Q 5097 3584 5394 3201 
Q 5691 2819 5691 2113 
L 5691 0 
L 5113 0 
L 5113 2094 
Q 5113 2597 4934 2840 
Q 4756 3084 4391 3084 
Q 3944 3084 3684 2787 
Q 3425 2491 3425 1978 
L 3425 0 
L 2847 0 
L 2847 2094 
Q 2847 2600 2669 2842 
Q 2491 3084 2119 3084 
Q 1678 3084 1418 2786 
Q 1159 2488 1159 1978 
L 1159 0 
L 581 0 
L 581 3500 
L 1159 3500 
L 1159 2956 
Q 1356 3278 1631 3431 
Q 1906 3584 2284 3584 
Q 2666 3584 2933 3390 
Q 3200 3197 3328 2828 
z
" transform="scale(0.015625)"/>
       <path id="DejaVuSans-65" d="M 3597 1894 
L 3597 1613 
L 953 1613 
Q 991 1019 1311 708 
Q 1631 397 2203 397 
Q 2534 397 2845 478 
Q 3156 559 3463 722 
L 3463 178 
Q 3153 47 2828 -22 
Q 2503 -91 2169 -91 
Q 1331 -91 842 396 
Q 353 884 353 1716 
Q 353 2575 817 3079 
Q 1281 3584 2069 3584 
Q 2775 3584 3186 3129 
Q 3597 2675 3597 1894 
z
M 3022 2063 
Q 3016 2534 2758 2815 
Q 2500 3097 2075 3097 
Q 1594 3097 1305 2825 
Q 1016 2553 972 2059 
L 3022 2063 
z
" transform="scale(0.015625)"/>
       <path id="DejaVuSans-20" transform="scale(0.015625)"/>
       <path id="DejaVuSans-5b" d="M 550 4863 
L 1875 4863 
L 1875 4416 
L 1125 4416 
L 1125 -397 
L 1875 -397 
L 1875 -844 
L 550 -844 
L 550 4863 
z
" transform="scale(0.015625)"/>
       <path id="DejaVuSans-73" d="M 2834 3397 
L 2834 2853 
Q 2591 2978 2328 3040 
Q 2066 3103 1784 3103 
Q 1356 3103 1142 2972 
Q 928 2841 928 2578 
Q 928 2378 1081 2264 
Q 1234 2150 1697 2047 
L 1894 2003 
Q 2506 1872 2764 1633 
Q 3022 1394 3022 966 
Q 3022 478 2636 193 
Q 2250 -91 1575 -91 
Q 1294 -91 989 -36 
Q 684 19 347 128 
L 347 722 
Q 666 556 975 473 
Q 1284 391 1588 391 
Q 1994 391 2212 530 
Q 2431 669 2431 922 
Q 2431 1156 2273 1281 
Q 2116 1406 1581 1522 
L 1381 1569 
Q 847 1681 609 1914 
Q 372 2147 372 2553 
Q 372 3047 722 3315 
Q 1072 3584 1716 3584 
Q 2034 3584 2315 3537 
Q 2597 3491 2834 3397 
z
" transform="scale(0.015625)"/>
       <path id="DejaVuSans-5d" d="M 1947 4863 
L 1947 -844 
L 622 -844 
L 622 -397 
L 1369 -397 
L 1369 4416 
L 622 4416 
L 622 4863 
L 1947 4863 
z
" transform="scale(0.015625)"/>
      </defs>
      <use xlink:href="#DejaVuSans-54"/>
      <use xlink:href="#DejaVuSans-69" transform="translate(57.958984 0)"/>
      <use xlink:href="#DejaVuSans-6d" transform="translate(85.742188 0)"/>
      <use xlink:href="#DejaVuSans-65" transform="translate(183.154297 0)"/>
      <use xlink:href="#DejaVuSans-20" transform="translate(244.677734 0)"/>
      <use xlink:href="#DejaVuSans-5b" transform="translate(276.464844 0)"/>
      <use xlink:href="#DejaVuSans-6d" transform="translate(315.478516 0)"/>
      <use xlink:href="#DejaVuSans-73" transform="translate(412.890625 0)"/>
      <use xlink:href="#DejaVuSans-5d" transform="translate(464.990234 0)"/>
     </g>
    </g>
   </g>
   <g id="matplotlib.axis_2">
    <g id="ytick_1">
     <g id="line2d_13">
      <path d="M 62.57 304.741408 
L 529.785 304.741408 
" clip-path="url(#pa6c84c2a1d)" style="fill: none; stroke: #b0b0b0; stroke-width: 0.8; stroke-linecap: square"/>
     </g>
     <g id="line2d_14">
      <defs>
       <path id="m01fa2b3b88" d="M 0 0 
L -3.5 0 
" style="stroke: #000000; stroke-width: 0.8"/>
      </defs>
      <g>
       <use xlink:href="#m01fa2b3b88" x="62.57" y="304.741408" style="stroke: #000000; stroke-width: 0.8"/>
      </g>
     </g>
     <g id="text_8">
      <!-- −1.00 -->
      <g transform="translate(24.924688 308.540627) scale(0.1 -0.1)">
       <defs>
        <path id="DejaVuSans-2212" d="M 678 2272 
L 4684 2272 
L 4684 1741 
L 678 1741 
L 678 2272 
z
" transform="scale(0.015625)"/>
       </defs>
       <use xlink:href="#DejaVuSans-2212"/>
       <use xlink:href="#DejaVuSans-31" transform="translate(83.789062 0)"/>
       <use xlink:href="#DejaVuSans-2e" transform="translate(147.412109 0)"/>
       <use xlink:href="#DejaVuSans-30" transform="translate(179.199219 0)"/>
       <use xlink:href="#DejaVuSans-30" transform="translate(242.822266 0)"/>
      </g>
     </g>
    </g>
    <g id="ytick_2">
     <g id="line2d_15">
      <path d="M 62.57 271.48998 
L 529.785 271.48998 
" clip-path="url(#pa6c84c2a1d)" style="fill: none; stroke: #b0b0b0; stroke-width: 0.8; stroke-linecap: square"/>
     </g>
     <g id="line2d_16">
      <g>
       <use xlink:href="#m01fa2b3b88" x="62.57" y="271.48998" style="stroke: #000000; stroke-width: 0.8"/>
      </g>
     </g>
     <g id="text_9">
      <!-- −0.75 -->
      <g transform="translate(24.924688 275.289199) scale(0.1 -0.1)">
       <defs>
        <path id="DejaVuSans-37" d="M 525 4666 
L 3525 4666 
L 3525 4397 
L 1831 0 
L 1172 0 
L 2766 4134 
L 525 4134 
L 525 4666 
z
" transform="scale(0.015625)"/>
        <path id="DejaVuSans-35" d="M 691 4666 
L 3169 4666 
L 3169 4134 
L 1269 4134 
L 1269 2991 
Q 1406 3038 1543 3061 
Q 1681 3084 1819 3084 
Q 2600 3084 3056 2656 
Q 3513 2228 3513 1497 
Q 3513 744 3044 326 
Q 2575 -91 1722 -91 
Q 1428 -91 1123 -41 
Q 819 9 494 109 
L 494 744 
Q 775 591 1075 516 
Q 1375 441 1709 441 
Q 2250 441 2565 725 
Q 2881 1009 2881 1497 
Q 2881 1984 2565 2268 
Q 2250 2553 1709 2553 
Q 1456 2553 1204 2497 
Q 953 2441 691 2322 
L 691 4666 
z
" transform="scale(0.015625)"/>
       </defs>
       <use xlink:href="#DejaVuSans-2212"/>
       <use xlink:href="#DejaVuSans-30" transform="translate(83.789062 0)"/>
       <use xlink:href="#DejaVuSans-2e" transform="translate(147.412109 0)"/>
       <use xlink:href="#DejaVuSans-37" transform="translate(179.199219 0)"/>
       <use xlink:href="#DejaVuSans-35" transform="translate(242.822266 0)"/>
      </g>
     </g>
    </g>
    <g id="ytick_3">
     <g id="line2d_17">
      <path d="M 62.57 238.238553 
L 529.785 238.238553 
" clip-path="url(#pa6c84c2a1d)" style="fill: none; stroke: #b0b0b0; stroke-width: 0.8; stroke-linecap: square"/>
     </g>
     <g id="line2d_18">
      <g>
       <use xlink:href="#m01fa2b3b88" x="62.57" y="238.238553" style="stroke: #000000; stroke-width: 0.8"/>
      </g>
     </g>
     <g id="text_10">
      <!-- −0.50 -->
      <g transform="translate(24.924688 242.037771) scale(0.1 -0.1)">
       <use xlink:href="#DejaVuSans-2212"/>
       <use xlink:href="#DejaVuSans-30" transform="translate(83.789062 0)"/>
       <use xlink:href="#DejaVuSans-2e" transform="translate(147.412109 0)"/>
       <use xlink:href="#DejaVuSans-35" transform="translate(179.199219 0)"/>
       <use xlink:href="#DejaVuSans-30" transform="translate(242.822266 0)"/>
      </g>
     </g>
    </g>
    <g id="ytick_4">
     <g id="line2d_19">
      <path d="M 62.57 204.987125 
L 529.785 204.987125 
" clip-path="url(#pa6c84c2a1d)" style="fill: none; stroke: #b0b0b0; stroke-width: 0.8; stroke-linecap: square"/>
     </g>
     <g id="line2d_20">
      <g>
       <use xlink:href="#m01fa2b3b88" x="62.57" y="204.987125" style="stroke: #000000; stroke-width: 0.8"/>
      </g>
     </g>
     <g id="text_11">
      <!-- −0.25 -->
      <g transform="translate(24.924688 208.786343) scale(0.1 -0.1)">
       <use xlink:href="#DejaVuSans-2212"/>
       <use xlink:href="#DejaVuSans-30" transform="translate(83.789062 0)"/>
       <use xlink:href="#DejaVuSans-2e" transform="translate(147.412109 0)"/>
       <use xlink:href="#DejaVuSans-32" transform="translate(179.199219 0)"/>
       <use xlink:href="#DejaVuSans-35" transform="translate(242.822266 0)"/>
      </g>
     </g>
    </g>
    <g id="ytick_5">
     <g id="line2d_21">
      <path d="M 62.57 171.735697 
L 529.785 171.735697 
" clip-path="url(#pa6c84c2a1d)" style="fill: none; stroke: #b0b0b0; stroke-width: 0.8; stroke-linecap: square"/>
     </g>
     <g id="line2d_22">
      <g>
       <use xlink:href="#m01fa2b3b88" x="62.57" y="171.735697" style="stroke: #000000; stroke-width: 0.8"/>
      </g>
     </g>
     <g id="text_12">
      <!-- 0.00 -->
      <g transform="translate(33.304375 175.534915) scale(0.1 -0.1)">
       <use xlink:href="#DejaVuSans-30"/>
       <use xlink:href="#DejaVuSans-2e" transform="translate(63.623047 0)"/>
       <use xlink:href="#DejaVuSans-30" transform="translate(95.410156 0)"/>
       <use xlink:href="#DejaVuSans-30" transform="translate(159.033203 0)"/>
      </g>
     </g>
    </g>
    <g id="ytick_6">
     <g id="line2d_23">
      <path d="M 62.57 138.484269 
L 529.785 138.484269 
" clip-path="url(#pa6c84c2a1d)" style="fill: none; stroke: #b0b0b0; stroke-width: 0.8; stroke-linecap: square"/>
     </g>
     <g id="line2d_24">
      <g>
       <use xlink:href="#m01fa2b3b88" x="62.57" y="138.484269" style="stroke: #000000; stroke-width: 0.8"/>
      </g>
     </g>
     <g id="text_13">
      <!-- 0.25 -->
      <g transform="translate(33.304375 142.283487) scale(0.1 -0.1)">
       <use xlink:href="#DejaVuSans-30"/>
       <use xlink:href="#DejaVuSans-2e" transform="translate(63.623047 0)"/>
       <use xlink:href="#DejaVuSans-32" transform="translate(95.410156 0)"/>
       <use xlink:href="#DejaVuSans-35" transform="translate(159.033203 0)"/>
      </g>
     </g>
    </g>
    <g id="ytick_7">
     <g id="line2d_25">
      <path d="M 62.57 105.232841 
L 529.785 105.232841 
" clip-path="url(#pa6c84c2a1d)" style="fill: none; stroke: #b0b0b0; stroke-width: 0.8; stroke-linecap: square"/>
     </g>
     <g id="line2d_26">
      <g>
       <use xlink:href="#m01fa2b3b88" x="62.57" y="105.232841" style="stroke: #000000; stroke-width: 0.8"/>
      </g>
     </g>
     <g id="text_14">
      <!-- 0.50 -->
      <g transform="translate(33.304375 109.03206) scale(0.1 -0.1)">
       <use xlink:href="#DejaVuSans-30"/>
       <use xlink:href="#DejaVuSans-2e" transform="translate(63.623047 0)"/>
       <use xlink:href="#DejaVuSans-35" transform="translate(95.410156 0)"/>
       <use xlink:href="#DejaVuSans-30" transform="translate(159.033203 0)"/>
      </g>
     </g>
    </g>
    <g id="ytick_8">
     <g id="line2d_27">
      <path d="M 62.57 71.981413 
L 529.785 71.981413 
" clip-path="url(#pa6c84c2a1d)" style="fill: none; stroke: #b0b0b0; stroke-width: 0.8; stroke-linecap: square"/>
     </g>
     <g id="line2d_28">
      <g>
       <use xlink:href="#m01fa2b3b88" x="62.57" y="71.981413" style="stroke: #000000; stroke-width: 0.8"/>
      </g>
     </g>
     <g id="text_15">
      <!-- 0.75 -->
      <g transform="translate(33.304375 75.780632) scale(0.1 -0.1)">
       <use xlink:href="#DejaVuSans-30"/>
       <use xlink:href="#DejaVuSans-2e" transform="translate(63.623047 0)"/>
       <use xlink:href="#DejaVuSans-37" transform="translate(95.410156 0)"/>
       <use xlink:href="#DejaVuSans-35" transform="translate(159.033203 0)"/>
      </g>
     </g>
    </g>
    <g id="ytick_9">
     <g id="line2d_29">
      <path d="M 62.57 38.729985 
L 529.785 38.729985 
" clip-path="url(#pa6c84c2a1d)" style="fill: none; stroke: #b0b0b0; stroke-width: 0.8; stroke-linecap: square"/>
     </g>
     <g id="line2d_30">
      <g>
       <use xlink:href="#m01fa2b3b88" x="62.57" y="38.729985" style="stroke: #000000; stroke-width: 0.8"/>
      </g>
     </g>
     <g id="text_16">
      <!-- 1.00 -->
      <g transform="translate(33.304375 42.529204) scale(0.1 -0.1)">
       <use xlink:href="#DejaVuSans-31"/>
       <use xlink:href="#DejaVuSans-2e" transform="translate(63.623047 0)"/>
       <use xlink:href="#DejaVuSans-30" transform="translate(95.410156 0)"/>
       <use xlink:href="#DejaVuSans-30" transform="translate(159.033203 0)"/>
      </g>
     </g>
    </g>
    <g id="text_17">
     <!-- Amplitude -->
     <g transform="translate(18.845 197.362656) rotate(-90) scale(0.1 -0.1)">
      <defs>
       <path id="DejaVuSans-41" d="M 2188 4044 
L 1331 1722 
L 3047 1722 
L 2188 4044 
z
M 1831 4666 
L 2547 4666 
L 4325 0 
L 3669 0 
L 3244 1197 
L 1141 1197 
L 716 0 
L 50 0 
L 1831 4666 
z
" transform="scale(0.015625)"/>
       <path id="DejaVuSans-70" d="M 1159 525 
L 1159 -1331 
L 581 -1331 
L 581 3500 
L 1159 3500 
L 1159 2969 
Q 1341 3281 1617 3432 
Q 1894 3584 2278 3584 
Q 2916 3584 3314 3078 
Q 3713 2572 3713 1747 
Q 3713 922 3314 415 
Q 2916 -91 2278 -91 
Q 1894 -91 1617 61 
Q 1341 213 1159 525 
z
M 3116 1747 
Q 3116 2381 2855 2742 
Q 2594 3103 2138 3103 
Q 1681 3103 1420 2742 
Q 1159 2381 1159 1747 
Q 1159 1113 1420 752 
Q 1681 391 2138 391 
Q 2594 391 2855 752 
Q 3116 1113 3116 1747 
z
" transform="scale(0.015625)"/>
       <path id="DejaVuSans-6c" d="M 603 4863 
L 1178 4863 
L 1178 0 
L 603 0 
L 603 4863 
z
" transform="scale(0.015625)"/>
       <path id="DejaVuSans-74" d="M 1172 4494 
L 1172 3500 
L 2356 3500 
L 2356 3053 
L 1172 3053 
L 1172 1153 
Q 1172 725 1289 603 
Q 1406 481 1766 481 
L 2356 481 
L 2356 0 
L 1766 0 
Q 1100 0 847 248 
Q 594 497 594 1153 
L 594 3053 
L 172 3053 
L 172 3500 
L 594 3500 
L 594 4494 
L 1172 4494 
z
" transform="scale(0.015625)"/>
       <path id="DejaVuSans-75" d="M 544 1381 
L 544 3500 
L 1119 3500 
L 1119 1403 
Q 1119 906 1312 657 
Q 1506 409 1894 409 
Q 2359 409 2629 706 
Q 2900 1003 2900 1516 
L 2900 3500 
L 3475 3500 
L 3475 0 
L 2900 0 
L 2900 538 
Q 2691 219 2414 64 
Q 2138 -91 1772 -91 
Q 1169 -91 856 284 
Q 544 659 544 1381 
z
M 1991 3584 
L 1991 3584 
z
" transform="scale(0.015625)"/>
       <path id="DejaVuSans-64" d="M 2906 2969 
L 2906 4863 
L 3481 4863 
L 3481 0 
L 2906 0 
L 2906 525 
Q 2725 213 2448 61 
Q 2172 -91 1784 -91 
Q 1150 -91 751 415 
Q 353 922 353 1747 
Q 353 2572 751 3078 
Q 1150 3584 1784 3584 
Q 2172 3584 2448 3432 
Q 2725 3281 2906 2969 
z
M 947 1747 
Q 947 1113 1208 752 
Q 1469 391 1925 391 
Q 2381 391 2643 752 
Q 2906 1113 2906 1747 
Q 2906 2381 2643 2742 
Q 2381 3103 1925 3103 
Q 1469 3103 1208 2742 
Q 947 2381 947 1747 
z
" transform="scale(0.015625)"/>
      </defs>
      <use xlink:href="#DejaVuSans-41"/>
      <use xlink:href="#DejaVuSans-6d" transform="translate(68.408203 0)"/>
      <use xlink:href="#DejaVuSans-70" transform="translate(165.820312 0)"/>
      <use xlink:href="#DejaVuSans-6c" transform="translate(229.296875 0)"/>
      <use xlink:href="#DejaVuSans-69" transform="translate(257.080078 0)"/>
      <use xlink:href="#DejaVuSans-74" transform="translate(284.863281 0)"/>
      <use xlink:href="#DejaVuSans-75" transform="translate(324.072266 0)"/>
      <use xlink:href="#DejaVuSans-64" transform="translate(387.451172 0)"/>
      <use xlink:href="#DejaVuSans-65" transform="translate(450.927734 0)"/>
     </g>
    </g>
   </g>
   <g id="line2d_31">
    <path d="M 83.807045 48.854442 
L 84.637428 48.73765 
L 85.883003 48.277 
L 87.128577 47.496052 
L 88.374152 46.43637 
L 90.034918 44.696466 
L 94.186833 40.095696 
L 95.432408 39.169317 
L 96.262791 38.816396 
L 97.093174 38.74 
L 97.923557 38.999405 
L 98.75394 39.656722 
L 99.584323 40.776309 
L 100.414706 42.424019 
L 101.245089 44.666292 
L 102.075472 47.569043 
L 102.905855 51.196375 
L 103.736238 55.609078 
L 104.981812 63.820868 
L 106.227387 74.080459 
L 107.472961 86.493342 
L 108.718536 101.095831 
L 110.379302 123.867601 
L 112.040068 150.00257 
L 114.531217 193.56946 
L 117.852749 251.8656 
L 119.098323 270.764565 
L 120.343898 286.443009 
L 121.174281 294.577876 
L 122.004664 300.503727 
L 122.419855 302.550013 
L 122.835047 303.942206 
L 123.250238 304.651282 
L 123.66543 304.651282 
L 124.080621 303.919717 
L 124.495813 302.437978 
L 124.911004 300.19173 
L 125.741387 293.37212 
L 126.57177 283.446369 
L 127.402153 270.491693 
L 128.647728 245.799267 
L 129.893302 215.774727 
L 131.96926 158.495827 
L 134.045217 101.528535 
L 135.290792 72.774959 
L 136.121175 57.60048 
L 136.951558 46.504958 
L 137.36675 42.69125 
L 137.781941 40.125014 
L 138.197133 38.861569 
L 138.612324 38.944159 
L 139.027516 40.402802 
L 139.442707 43.253248 
L 139.857899 47.496052 
L 140.688282 60.080426 
L 141.518665 77.830836 
L 142.349048 100.147547 
L 143.594622 140.210203 
L 146.916154 254.526602 
L 147.746537 276.527481 
L 148.57692 292.91384 
L 148.992112 298.622936 
L 149.407303 302.512976 
L 149.822495 304.491107 
L 150.237686 304.491107 
L 150.652878 302.475631 
L 151.068069 298.438083 
L 151.483261 292.404062 
L 152.313644 274.615189 
L 153.144027 249.980503 
L 154.389601 203.360288 
L 157.295942 86.650061 
L 158.126325 62.176164 
L 158.956708 45.734031 
L 159.371899 41.033416 
L 159.787091 38.870799 
L 160.202282 39.33107 
L 160.617474 42.447933 
L 161.032665 48.201241 
L 161.447857 56.515382 
L 162.27824 80.244759 
L 163.108623 111.934822 
L 164.769389 188.624323 
L 166.014963 244.694054 
L 166.845346 274.808886 
L 167.675729 295.495685 
L 168.090921 301.554203 
L 168.506112 304.478439 
L 168.921304 304.149972 
L 169.336495 300.529235 
L 169.751687 293.659247 
L 170.166878 283.667315 
L 170.997261 255.243197 
L 171.827644 217.886073 
L 174.733985 75.829774 
L 175.564368 50.684037 
L 175.979559 43.096341 
L 176.394751 39.220429 
L 176.809942 39.220429 
L 177.225134 43.148341 
L 177.640325 50.938927 
L 178.055517 62.408045 
L 178.8859 95.066536 
L 180.131474 160.730769 
L 181.792241 250.803136 
L 182.622624 283.722388 
L 183.037815 294.926949 
L 183.453007 302.024071 
L 183.868198 304.720713 
L 184.28339 302.869489 
L 184.698581 296.47808 
L 185.113773 285.713475 
L 185.944156 252.51547 
L 186.774539 207.603124 
L 188.850496 87.121416 
L 189.680879 54.435131 
L 190.096071 44.457166 
L 190.511262 39.360484 
L 190.926454 39.400792 
L 191.341645 44.636192 
L 191.756837 54.919468 
L 192.172028 69.89843 
L 193.002411 111.570618 
L 195.908752 281.005217 
L 196.323943 294.302327 
L 196.739135 302.3425 
L 197.154326 304.716958 
L 197.569518 301.259172 
L 197.984709 292.058528 
L 198.399901 277.462885 
L 199.230284 234.703894 
L 201.721433 76.112953 
L 202.136624 58.340347 
L 202.551816 45.931372 
L 202.967007 39.540393 
L 203.382199 39.540393 
L 203.79739 45.997745 
L 204.212582 58.66144 
L 205.042965 100.061591 
L 206.288539 185.990241 
L 207.118922 242.634687 
L 207.949305 285.077698 
L 208.364497 297.96422 
L 208.779688 304.206228 
L 209.19488 303.404706 
L 209.610071 295.533019 
L 210.025263 280.947021 
L 210.855646 234.883535 
L 213.346795 65.148089 
L 213.761986 49.28824 
L 214.177178 40.435213 
L 214.592369 39.169317 
L 215.007561 45.636362 
L 215.422752 59.529376 
L 215.837944 80.096776 
L 216.668327 136.261377 
L 218.329093 259.381312 
L 218.744284 281.353039 
L 219.159476 296.58394 
L 219.574667 304.06033 
L 219.989859 303.241329 
L 220.40505 294.103343 
L 220.820242 277.152632 
L 221.650625 224.326352 
L 223.726582 69.37539 
L 224.141774 51.024459 
L 224.556965 40.723178 
L 224.972157 39.23809 
L 225.387348 46.747334 
L 225.80254 62.816313 
L 226.632923 115.977456 
L 228.708881 275.769166 
L 229.124072 294.023245 
L 229.539264 303.531407 
L 229.954455 303.531407 
L 230.369647 293.94286 
L 230.784838 275.386699 
L 231.615221 217.1198 
L 233.275987 80.913339 
L 233.691179 57.810531 
L 234.10637 43.359364 
L 234.521562 38.74266 
L 234.936753 44.39809 
L 235.351945 59.969689 
L 235.767136 84.320511 
L 236.597519 151.412798 
L 237.843094 257.212753 
L 238.258285 282.439126 
L 238.673477 298.744679 
L 239.088668 304.727286 
L 239.50386 299.813981 
L 239.919051 284.323826 
L 240.334243 259.458019 
L 241.164626 190.242024 
L 242.4102 82.338959 
L 242.825392 57.652892 
L 243.240583 42.715999 
L 243.655775 38.895241 
L 244.070966 46.608392 
L 244.486158 65.270256 
L 245.316541 128.371117 
L 246.562115 243.237848 
L 246.977307 273.310004 
L 247.392498 294.262675 
L 247.80769 304.120792 
L 248.222881 301.899598 
L 248.638073 287.712797 
L 249.053264 262.781397 
L 249.883647 190.444046 
L 251.129222 77.830836 
L 251.544413 53.580733 
L 251.959605 40.567948 
L 252.374796 40.125014 
L 252.789988 52.386402 
L 253.205179 76.25488 
L 254.035562 148.896283 
L 255.281137 264.842525 
L 255.696328 289.843783 
L 256.11152 303.052424 
L 256.526711 303.052424 
L 256.941903 289.74982 
L 257.357094 264.404437 
L 258.187477 188.624323 
L 259.01786 105.734099 
L 259.433052 72.367049 
L 259.848243 49.328109 
L 260.263435 39.113235 
L 260.678626 42.89137 
L 261.093818 60.358416 
L 261.509009 89.745632 
L 263.584967 282.833349 
L 264.000158 300.630508 
L 264.41535 304.268314 
L 264.830541 293.247992 
L 265.245733 268.695481 
L 266.076116 190.847957 
L 266.906499 104.322022 
L 267.32169 70.02979 
L 267.736882 47.278835 
L 268.152073 38.75643 
L 268.567265 45.539359 
L 268.982456 66.943912 
L 269.812839 142.59398 
L 271.058414 268.485731 
L 271.473605 293.740639 
L 271.888797 304.484812 
L 272.303988 299.335438 
L 272.71918 278.809462 
L 273.134372 245.290077 
L 274.795138 74.42747 
L 275.210329 49.050541 
L 275.625521 38.848311 
L 276.040712 45.189405 
L 276.455904 67.385188 
L 277.286287 146.889073 
L 278.11667 238.885374 
L 278.531861 275.002038 
L 278.947053 297.932034 
L 279.362244 304.635637 
L 279.777436 294.143284 
L 280.192627 267.712274 
L 281.02301 182.130524 
L 281.853393 90.955923 
L 282.268585 58.447111 
L 282.683776 40.977052 
L 283.098968 40.977052 
L 283.514159 58.554142 
L 283.929351 91.443042 
L 285.590117 270.628245 
L 286.005308 296.264378 
L 286.4205 304.72576 
L 286.835691 294.733743 
L 287.250883 267.570909 
L 288.081266 178.465752 
L 288.911649 85.401949 
L 289.32684 54.052629 
L 289.742032 39.452928 
L 290.157223 43.795903 
L 290.572415 66.568079 
L 291.402798 152.421548 
L 292.233181 249.401917 
L 292.648372 284.323826 
L 293.063564 302.712872 
L 293.478755 301.750897 
L 293.893947 281.468464 
L 294.309138 244.779329 
L 295.969904 61.145489 
L 296.385096 41.285652 
L 296.800287 41.305593 
L 297.215479 61.31581 
L 297.63067 98.351393 
L 299.291436 283.887209 
L 299.706628 302.852396 
L 300.121819 301.212638 
L 300.537011 279.111264 
L 300.952202 239.939217 
L 302.197777 89.184534 
L 302.612968 54.82205 
L 303.02816 39.292943 
L 303.443351 45.220847 
L 303.858543 71.759132 
L 304.688926 167.044021 
L 305.519309 265.568284 
L 305.9345 295.383246 
L 306.349692 304.665676 
L 306.764883 291.752469 
L 307.180075 258.688636 
L 308.840841 63.880532 
L 309.256032 41.613898 
L 309.671224 41.613898 
L 310.086415 64.000052 
L 310.501607 105.026805 
L 311.747181 260.98126 
L 312.162373 293.536623 
L 312.577564 304.735775 
L 312.992756 292.489736 
L 313.407947 258.842923 
L 315.068713 60.525996 
L 315.483905 40.276247 
L 315.899096 43.768054 
L 316.314288 70.491432 
L 317.144671 171.225627 
L 317.975054 272.581945 
L 318.390245 299.67549 
L 318.805437 303.100694 
L 319.220628 282.09868 
L 319.63582 240.463977 
L 320.881395 79.286736 
L 321.296586 47.423354 
L 321.711778 39.113235 
L 322.126969 56.059474 
L 322.542161 95.149918 
L 323.787735 258.842923 
L 324.202927 293.577569 
L 324.618118 304.672403 
L 325.03331 289.843783 
L 325.448501 251.8656 
L 327.109267 50.515534 
L 327.524459 38.775207 
L 327.93965 53.580733 
L 328.354842 92.095178 
L 329.600416 259.227744 
L 330.015608 294.341908 
L 330.430799 304.521408 
L 330.845991 287.562665 
L 331.261182 246.812931 
L 332.506757 78.556046 
L 332.921948 46.097858 
L 333.33714 39.793658 
L 333.752331 61.088846 
L 334.167523 105.645551 
L 335.413097 273.572963 
L 335.828289 301.142267 
L 336.24348 301.142267 
L 336.658672 273.441604 
L 337.489055 162.968844 
L 338.319438 59.419957 
L 338.734629 39.321422 
L 339.149821 48.088148 
L 339.565012 83.936719 
L 341.225778 294.538729 
L 341.64097 304.293753 
L 342.056161 284.486466 
L 342.471353 239.413012 
L 343.716927 67.195701 
L 344.132119 41.014551 
L 344.54731 44.516542 
L 344.962502 77.039488 
L 346.623268 292.87175 
L 347.038459 304.497323 
L 347.453651 285.290693 
L 347.868842 239.588573 
L 349.114417 64.904507 
L 349.529608 40.169571 
L 349.9448 46.539362 
L 350.359991 82.641519 
L 352.020757 297.671878 
L 352.435949 302.852396 
L 352.85114 276.338732 
L 353.681523 159.612866 
L 354.096715 97.672126 
L 354.511906 53.768659 
L 354.927098 38.758504 
L 355.342289 56.464454 
L 355.757481 102.658384 
L 357.003055 281.121415 
L 357.418247 304.080796 
L 357.833438 293.902559 
L 358.24863 253.000878 
L 359.494204 70.227278 
L 359.909396 41.187102 
L 360.324587 45.411062 
L 360.739779 81.961943 
L 361.985353 267.003201 
L 362.400545 300.34909 
L 362.815736 300.34909 
L 363.230928 266.860712 
L 364.891694 44.486817 
L 365.306885 42.074451 
L 365.722077 74.011229 
L 367.382843 298.592314 
L 367.798035 301.554203 
L 368.213226 269.529337 
L 369.873992 44.193683 
L 370.289184 42.593011 
L 370.704375 76.397032 
L 372.365141 300.853936 
L 372.780333 299.13208 
L 373.195524 261.885147 
L 374.441099 70.623866 
L 374.85629 40.636168 
L 375.271482 47.679076 
L 375.686673 89.906381 
L 376.932248 280.65508 
L 377.347439 304.424647 
L 377.762631 290.077474 
L 378.177822 241.59595 
L 379.008205 103.707418 
L 379.423397 54.243327 
L 379.838588 38.961871 
L 380.25378 62.466177 
L 380.668971 118.022875 
L 381.499354 255.718718 
L 381.914546 297.272757 
L 382.329737 301.68602 
L 382.744929 267.500143 
L 383.990503 71.155979 
L 384.405695 40.386712 
L 384.820886 49.129485 
L 385.236078 94.899906 
L 386.481652 287.712797 
L 386.896844 304.586164 
L 387.312035 280.830437 
L 387.727227 223.57576 
L 388.55761 83.554218 
L 388.972801 43.992952 
L 389.387993 43.992952 
L 389.803184 83.707063 
L 391.048759 281.984678 
L 391.46395 304.698807 
L 391.879142 285.555434 
L 392.294333 230.440596 
L 393.124716 87.594563 
L 393.539908 45.220847 
L 393.955099 43.174454 
L 394.370291 82.26345 
L 395.615865 282.777228 
L 396.031057 304.738905 
L 396.446248 283.612177 
L 396.86144 226.10102 
L 397.691823 82.26345 
L 398.107014 42.942158 
L 398.522206 45.865296 
L 398.937397 90.228455 
L 400.182972 289.74982 
L 400.598163 303.997066 
L 401.013355 274.161112 
L 402.258929 68.920891 
L 402.674121 39.370444 
L 403.089312 54.483255 
L 403.504504 109.307309 
L 404.334887 256.899717 
L 404.750078 299.449991 
L 405.16527 298.375869 
L 405.580461 253.886316 
L 406.826036 51.895369 
L 407.241227 40.199663 
L 407.656419 74.149747 
L 408.901993 281.870417 
L 409.317185 304.738905 
L 409.732376 280.888761 
L 410.562759 139.615897 
L 410.977951 71.961243 
L 411.393142 39.644739 
L 411.808334 54.291174 
L 412.223526 110.843912 
L 413.053909 261.434153 
L 413.4691 301.487263 
L 413.884292 294.849884 
L 414.299483 243.753204 
L 415.129866 91.118107 
L 415.545058 44.940548 
L 415.960249 44.940548 
L 416.375441 91.28048 
L 417.205824 244.779329 
L 417.621015 295.607468 
L 418.036207 300.780143 
L 418.451398 258.224548 
L 419.696973 50.26492 
L 420.112164 41.426846 
L 420.527356 81.361465 
L 421.77293 291.664388 
L 422.188122 302.64126 
L 422.603313 264.037865 
L 423.848888 52.29649 
L 424.264079 40.723178 
L 424.679271 79.360105 
L 425.924845 291.796404 
L 426.340037 302.400017 
L 426.755228 262.334231 
L 428.000803 50.016878 
L 428.415994 41.98413 
L 428.831186 84.859978 
L 430.07676 295.938882 
L 430.491952 299.758811 
L 430.907143 252.758389 
L 431.737526 93.408419 
L 432.152718 44.576218 
L 432.567909 46.643017 
L 432.983101 98.948018 
L 433.813484 258.765805 
L 434.228675 301.815085 
L 434.643867 292.188635 
L 435.059058 233.622952 
L 435.889441 74.845772 
L 436.304633 39.442345 
L 436.719824 58.233849 
L 437.135016 123.677301 
L 437.965399 278.990732 
L 438.38059 304.708508 
L 438.795782 275.322741 
L 440.041356 54.483255 
L 440.456548 40.584887 
L 440.871739 81.66128 
L 442.117314 297.506872 
L 442.532505 297.506872 
L 442.947697 244.181503 
L 443.77808 80.76439 
L 444.193271 40.260775 
L 444.608463 55.958909 
L 445.023654 121.308231 
L 445.854037 279.769664 
L 446.269229 304.595862 
L 446.68442 271.980919 
L 447.929995 49.690167 
L 448.345186 43.359364 
L 448.760378 93.161282 
L 449.590761 259.304554 
L 450.005952 302.695085 
L 450.421144 288.356265 
L 450.836335 222.446222 
L 451.666718 62.234038 
L 452.08191 39.121012 
L 452.497101 75.12578 
L 453.742676 297.306423 
L 454.157867 296.758905 
L 454.573059 239.851616 
L 455.403442 73.184965 
L 455.818633 38.890196 
L 456.233825 64.965308 
L 457.479399 292.404062 
L 457.894591 300.375052 
L 458.309783 249.236195 
L 459.140166 79.727764 
L 459.555357 39.574475 
L 459.970549 60.638044 
L 461.216123 290.309424 
L 461.631315 301.3054 
L 462.046506 251.621119 
L 462.876889 80.541369 
L 463.292081 39.597586 
L 463.707272 61.032267 
L 464.952847 291.840268 
L 465.368038 300.244486 
L 465.78323 247.317383 
L 466.613613 75.477069 
L 467.028804 38.921636 
L 467.443996 66.256586 
L 468.68957 296.407139 
L 469.104762 296.407139 
L 469.519953 235.779502 
L 470.350336 65.515341 
L 470.765528 39.046747 
L 471.180719 77.614349 
L 472.011102 251.946999 
L 472.426294 301.941395 
L 472.841485 287.612777 
L 473.256677 215.870973 
L 474.08706 53.023636 
L 474.502251 42.993249 
L 474.917443 97.248999 
L 475.747826 271.913843 
L 476.163017 304.73824 
L 476.578209 270.628245 
L 477.408592 94.983198 
L 477.823783 42.165993 
L 478.238975 55.06611 
L 478.654166 127.311835 
L 479.069358 222.257545 
L 479.484549 291.487379 
L 479.899741 299.506817 
L 480.314932 242.029482 
L 481.145315 66.69311 
L 481.560507 39.097913 
L 481.975698 80.022866 
L 482.806081 258.688636 
L 483.221273 303.778257 
L 483.636464 280.125553 
L 484.882039 44.787437 
L 485.29723 51.326057 
L 485.712422 121.213848 
L 486.542805 290.124003 
L 486.957996 299.868851 
L 487.373188 241.682739 
L 488.203571 64.360129 
L 488.618762 39.632834 
L 489.033954 85.479577 
L 489.864337 266.575064 
L 490.279528 304.696186 
L 490.69472 271.239847 
L 491.525103 90.147865 
L 491.940294 40.354764 
L 492.355486 61.830276 
L 493.60106 299.758811 
L 494.016252 289.513698 
L 494.431443 214.714313 
L 494.846635 116.255455 
L 495.261826 48.239085 
L 495.677018 48.239085 
L 496.092209 116.440951 
L 496.922592 290.077474 
L 497.337784 299.190558 
L 497.752975 237.382713 
L 498.583358 58.715188 
L 498.99855 41.699024 
L 499.413741 97.587413 
L 500.244124 279.650526 
L 500.659316 303.331605 
L 501.074507 252.677463 
L 501.90489 68.405093 
L 502.320082 39.292943 
L 502.735273 85.557256 
L 503.565656 271.239847 
L 503.980848 304.57103 
L 504.39604 261.735027 
L 505.226423 75.12578 
L 505.641614 38.760655 
L 506.056806 79.213422 
L 506.887189 266.503513 
L 507.30238 304.74 
L 507.717572 265.568284 
L 508.547955 77.686456 
L 508.547955 77.686456 
" clip-path="url(#pa6c84c2a1d)" style="fill: none; stroke: #1f77b4; stroke-width: 1.5; stroke-linecap: square"/>
   </g>
   <g id="patch_3">
    <path d="M 62.57 318.04 
L 62.57 25.44 
" style="fill: none; stroke: #000000; stroke-width: 0.8; stroke-linejoin: miter; stroke-linecap: square"/>
   </g>
   <g id="patch_4">
    <path d="M 529.785 318.04 
L 529.785 25.44 
" style="fill: none; stroke: #000000; stroke-width: 0.8; stroke-linejoin: miter; stroke-linecap: square"/>
   </g>
   <g id="patch_5">
    <path d="M 62.57 318.04 
L 529.785 318.04 
" style="fill: none; stroke: #000000; stroke-width: 0.8; stroke-linejoin: miter; stroke-linecap: square"/>
   </g>
   <g id="patch_6">
    <path d="M 62.57 25.44 
L 529.785 25.44 
" style="fill: none; stroke: #000000; stroke-width: 0.8; stroke-linejoin: miter; stroke-linecap: square"/>
   </g>
   <g id="text_18">
    <!-- CSS Modulated Signal in Time Domain Symbol 0 -->
    <g transform="translate(151.332813 19.44) scale(0.12 -0.12)">
     <defs>
      <path id="DejaVuSans-43" d="M 4122 4306 
L 4122 3641 
Q 3803 3938 3442 4084 
Q 3081 4231 2675 4231 
Q 1875 4231 1450 3742 
Q 1025 3253 1025 2328 
Q 1025 1406 1450 917 
Q 1875 428 2675 428 
Q 3081 428 3442 575 
Q 3803 722 4122 1019 
L 4122 359 
Q 3791 134 3420 21 
Q 3050 -91 2638 -91 
Q 1578 -91 968 557 
Q 359 1206 359 2328 
Q 359 3453 968 4101 
Q 1578 4750 2638 4750 
Q 3056 4750 3426 4639 
Q 3797 4528 4122 4306 
z
" transform="scale(0.015625)"/>
      <path id="DejaVuSans-53" d="M 3425 4513 
L 3425 3897 
Q 3066 4069 2747 4153 
Q 2428 4238 2131 4238 
Q 1616 4238 1336 4038 
Q 1056 3838 1056 3469 
Q 1056 3159 1242 3001 
Q 1428 2844 1947 2747 
L 2328 2669 
Q 3034 2534 3370 2195 
Q 3706 1856 3706 1288 
Q 3706 609 3251 259 
Q 2797 -91 1919 -91 
Q 1588 -91 1214 -16 
Q 841 59 441 206 
L 441 856 
Q 825 641 1194 531 
Q 1563 422 1919 422 
Q 2459 422 2753 634 
Q 3047 847 3047 1241 
Q 3047 1584 2836 1778 
Q 2625 1972 2144 2069 
L 1759 2144 
Q 1053 2284 737 2584 
Q 422 2884 422 3419 
Q 422 4038 858 4394 
Q 1294 4750 2059 4750 
Q 2388 4750 2728 4690 
Q 3069 4631 3425 4513 
z
" transform="scale(0.015625)"/>
      <path id="DejaVuSans-4d" d="M 628 4666 
L 1569 4666 
L 2759 1491 
L 3956 4666 
L 4897 4666 
L 4897 0 
L 4281 0 
L 4281 4097 
L 3078 897 
L 2444 897 
L 1241 4097 
L 1241 0 
L 628 0 
L 628 4666 
z
" transform="scale(0.015625)"/>
      <path id="DejaVuSans-6f" d="M 1959 3097 
Q 1497 3097 1228 2736 
Q 959 2375 959 1747 
Q 959 1119 1226 758 
Q 1494 397 1959 397 
Q 2419 397 2687 759 
Q 2956 1122 2956 1747 
Q 2956 2369 2687 2733 
Q 2419 3097 1959 3097 
z
M 1959 3584 
Q 2709 3584 3137 3096 
Q 3566 2609 3566 1747 
Q 3566 888 3137 398 
Q 2709 -91 1959 -91 
Q 1206 -91 779 398 
Q 353 888 353 1747 
Q 353 2609 779 3096 
Q 1206 3584 1959 3584 
z
" transform="scale(0.015625)"/>
      <path id="DejaVuSans-61" d="M 2194 1759 
Q 1497 1759 1228 1600 
Q 959 1441 959 1056 
Q 959 750 1161 570 
Q 1363 391 1709 391 
Q 2188 391 2477 730 
Q 2766 1069 2766 1631 
L 2766 1759 
L 2194 1759 
z
M 3341 1997 
L 3341 0 
L 2766 0 
L 2766 531 
Q 2569 213 2275 61 
Q 1981 -91 1556 -91 
Q 1019 -91 701 211 
Q 384 513 384 1019 
Q 384 1609 779 1909 
Q 1175 2209 1959 2209 
L 2766 2209 
L 2766 2266 
Q 2766 2663 2505 2880 
Q 2244 3097 1772 3097 
Q 1472 3097 1187 3025 
Q 903 2953 641 2809 
L 641 3341 
Q 956 3463 1253 3523 
Q 1550 3584 1831 3584 
Q 2591 3584 2966 3190 
Q 3341 2797 3341 1997 
z
" transform="scale(0.015625)"/>
      <path id="DejaVuSans-67" d="M 2906 1791 
Q 2906 2416 2648 2759 
Q 2391 3103 1925 3103 
Q 1463 3103 1205 2759 
Q 947 2416 947 1791 
Q 947 1169 1205 825 
Q 1463 481 1925 481 
Q 2391 481 2648 825 
Q 2906 1169 2906 1791 
z
M 3481 434 
Q 3481 -459 3084 -895 
Q 2688 -1331 1869 -1331 
Q 1566 -1331 1297 -1286 
Q 1028 -1241 775 -1147 
L 775 -588 
Q 1028 -725 1275 -790 
Q 1522 -856 1778 -856 
Q 2344 -856 2625 -561 
Q 2906 -266 2906 331 
L 2906 616 
Q 2728 306 2450 153 
Q 2172 0 1784 0 
Q 1141 0 747 490 
Q 353 981 353 1791 
Q 353 2603 747 3093 
Q 1141 3584 1784 3584 
Q 2172 3584 2450 3431 
Q 2728 3278 2906 2969 
L 2906 3500 
L 3481 3500 
L 3481 434 
z
" transform="scale(0.015625)"/>
      <path id="DejaVuSans-6e" d="M 3513 2113 
L 3513 0 
L 2938 0 
L 2938 2094 
Q 2938 2591 2744 2837 
Q 2550 3084 2163 3084 
Q 1697 3084 1428 2787 
Q 1159 2491 1159 1978 
L 1159 0 
L 581 0 
L 581 3500 
L 1159 3500 
L 1159 2956 
Q 1366 3272 1645 3428 
Q 1925 3584 2291 3584 
Q 2894 3584 3203 3211 
Q 3513 2838 3513 2113 
z
" transform="scale(0.015625)"/>
      <path id="DejaVuSans-44" d="M 1259 4147 
L 1259 519 
L 2022 519 
Q 2988 519 3436 956 
Q 3884 1394 3884 2338 
Q 3884 3275 3436 3711 
Q 2988 4147 2022 4147 
L 1259 4147 
z
M 628 4666 
L 1925 4666 
Q 3281 4666 3915 4102 
Q 4550 3538 4550 2338 
Q 4550 1131 3912 565 
Q 3275 0 1925 0 
L 628 0 
L 628 4666 
z
" transform="scale(0.015625)"/>
      <path id="DejaVuSans-79" d="M 2059 -325 
Q 1816 -950 1584 -1140 
Q 1353 -1331 966 -1331 
L 506 -1331 
L 506 -850 
L 844 -850 
Q 1081 -850 1212 -737 
Q 1344 -625 1503 -206 
L 1606 56 
L 191 3500 
L 800 3500 
L 1894 763 
L 2988 3500 
L 3597 3500 
L 2059 -325 
z
" transform="scale(0.015625)"/>
      <path id="DejaVuSans-62" d="M 3116 1747 
Q 3116 2381 2855 2742 
Q 2594 3103 2138 3103 
Q 1681 3103 1420 2742 
Q 1159 2381 1159 1747 
Q 1159 1113 1420 752 
Q 1681 391 2138 391 
Q 2594 391 2855 752 
Q 3116 1113 3116 1747 
z
M 1159 2969 
Q 1341 3281 1617 3432 
Q 1894 3584 2278 3584 
Q 2916 3584 3314 3078 
Q 3713 2572 3713 1747 
Q 3713 922 3314 415 
Q 2916 -91 2278 -91 
Q 1894 -91 1617 61 
Q 1341 213 1159 525 
L 1159 0 
L 581 0 
L 581 4863 
L 1159 4863 
L 1159 2969 
z
" transform="scale(0.015625)"/>
     </defs>
     <use xlink:href="#DejaVuSans-43"/>
     <use xlink:href="#DejaVuSans-53" transform="translate(69.824219 0)"/>
     <use xlink:href="#DejaVuSans-53" transform="translate(133.300781 0)"/>
     <use xlink:href="#DejaVuSans-20" transform="translate(196.777344 0)"/>
     <use xlink:href="#DejaVuSans-4d" transform="translate(228.564453 0)"/>
     <use xlink:href="#DejaVuSans-6f" transform="translate(314.84375 0)"/>
     <use xlink:href="#DejaVuSans-64" transform="translate(376.025391 0)"/>
     <use xlink:href="#DejaVuSans-75" transform="translate(439.501953 0)"/>
     <use xlink:href="#DejaVuSans-6c" transform="translate(502.880859 0)"/>
     <use xlink:href="#DejaVuSans-61" transform="translate(530.664062 0)"/>
     <use xlink:href="#DejaVuSans-74" transform="translate(591.943359 0)"/>
     <use xlink:href="#DejaVuSans-65" transform="translate(631.152344 0)"/>
     <use xlink:href="#DejaVuSans-64" transform="translate(692.675781 0)"/>
     <use xlink:href="#DejaVuSans-20" transform="translate(756.152344 0)"/>
     <use xlink:href="#DejaVuSans-53" transform="translate(787.939453 0)"/>
     <use xlink:href="#DejaVuSans-69" transform="translate(851.416016 0)"/>
     <use xlink:href="#DejaVuSans-67" transform="translate(879.199219 0)"/>
     <use xlink:href="#DejaVuSans-6e" transform="translate(942.675781 0)"/>
     <use xlink:href="#DejaVuSans-61" transform="translate(1006.054688 0)"/>
     <use xlink:href="#DejaVuSans-6c" transform="translate(1067.333984 0)"/>
     <use xlink:href="#DejaVuSans-20" transform="translate(1095.117188 0)"/>
     <use xlink:href="#DejaVuSans-69" transform="translate(1126.904297 0)"/>
     <use xlink:href="#DejaVuSans-6e" transform="translate(1154.6875 0)"/>
     <use xlink:href="#DejaVuSans-20" transform="translate(1218.066406 0)"/>
     <use xlink:href="#DejaVuSans-54" transform="translate(1249.853516 0)"/>
     <use xlink:href="#DejaVuSans-69" transform="translate(1307.8125 0)"/>
     <use xlink:href="#DejaVuSans-6d" transform="translate(1335.595703 0)"/>
     <use xlink:href="#DejaVuSans-65" transform="translate(1433.007812 0)"/>
     <use xlink:href="#DejaVuSans-20" transform="translate(1494.53125 0)"/>
     <use xlink:href="#DejaVuSans-44" transform="translate(1526.318359 0)"/>
     <use xlink:href="#DejaVuSans-6f" transform="translate(1603.320312 0)"/>
     <use xlink:href="#DejaVuSans-6d" transform="translate(1664.501953 0)"/>
     <use xlink:href="#DejaVuSans-61" transform="translate(1761.914062 0)"/>
     <use xlink:href="#DejaVuSans-69" transform="translate(1823.193359 0)"/>
     <use xlink:href="#DejaVuSans-6e" transform="translate(1850.976562 0)"/>
     <use xlink:href="#DejaVuSans-20" transform="translate(1914.355469 0)"/>
     <use xlink:href="#DejaVuSans-53" transform="translate(1946.142578 0)"/>
     <use xlink:href="#DejaVuSans-79" transform="translate(2009.619141 0)"/>
     <use xlink:href="#DejaVuSans-6d" transform="translate(2068.798828 0)"/>
     <use xlink:href="#DejaVuSans-62" transform="translate(2166.210938 0)"/>
     <use xlink:href="#DejaVuSans-6f" transform="translate(2229.6875 0)"/>
     <use xlink:href="#DejaVuSans-6c" transform="translate(2290.869141 0)"/>
     <use xlink:href="#DejaVuSans-20" transform="translate(2318.652344 0)"/>
     <use xlink:href="#DejaVuSans-30" transform="translate(2350.439453 0)"/>
    </g>
   </g>
  </g>
  <g id="axes_2">
   <g id="patch_7">
    <path d="M 601.985 318.04 
L 1069.2 318.04 
L 1069.2 25.44 
L 601.985 25.44 
z
" style="fill: #ffffff"/>
   </g>
   <g id="matplotlib.axis_3">
    <g id="xtick_7">
     <g id="line2d_32">
      <path d="M 623.222045 318.04 
L 623.222045 25.44 
" clip-path="url(#p047a489958)" style="fill: none; stroke: #b0b0b0; stroke-width: 0.8; stroke-linecap: square"/>
     </g>
     <g id="line2d_33">
      <g>
       <use xlink:href="#mbb74895b96" x="623.222045" y="318.04" style="stroke: #000000; stroke-width: 0.8"/>
      </g>
     </g>
     <g id="text_19">
      <!-- 0.0 -->
      <g transform="translate(615.270483 332.638438) scale(0.1 -0.1)">
       <use xlink:href="#DejaVuSans-30"/>
       <use xlink:href="#DejaVuSans-2e" transform="translate(63.623047 0)"/>
       <use xlink:href="#DejaVuSans-30" transform="translate(95.410156 0)"/>
      </g>
     </g>
    </g>
    <g id="xtick_8">
     <g id="line2d_34">
      <path d="M 706.260346 318.04 
L 706.260346 25.44 
" clip-path="url(#p047a489958)" style="fill: none; stroke: #b0b0b0; stroke-width: 0.8; stroke-linecap: square"/>
     </g>
     <g id="line2d_35">
      <g>
       <use xlink:href="#mbb74895b96" x="706.260346" y="318.04" style="stroke: #000000; stroke-width: 0.8"/>
      </g>
     </g>
     <g id="text_20">
      <!-- 0.2 -->
      <g transform="translate(698.308784 332.638438) scale(0.1 -0.1)">
       <use xlink:href="#DejaVuSans-30"/>
       <use xlink:href="#DejaVuSans-2e" transform="translate(63.623047 0)"/>
       <use xlink:href="#DejaVuSans-32" transform="translate(95.410156 0)"/>
      </g>
     </g>
    </g>
    <g id="xtick_9">
     <g id="line2d_36">
      <path d="M 789.298647 318.04 
L 789.298647 25.44 
" clip-path="url(#p047a489958)" style="fill: none; stroke: #b0b0b0; stroke-width: 0.8; stroke-linecap: square"/>
     </g>
     <g id="line2d_37">
      <g>
       <use xlink:href="#mbb74895b96" x="789.298647" y="318.04" style="stroke: #000000; stroke-width: 0.8"/>
      </g>
     </g>
     <g id="text_21">
      <!-- 0.4 -->
      <g transform="translate(781.347085 332.638438) scale(0.1 -0.1)">
       <use xlink:href="#DejaVuSans-30"/>
       <use xlink:href="#DejaVuSans-2e" transform="translate(63.623047 0)"/>
       <use xlink:href="#DejaVuSans-34" transform="translate(95.410156 0)"/>
      </g>
     </g>
    </g>
    <g id="xtick_10">
     <g id="line2d_38">
      <path d="M 872.336948 318.04 
L 872.336948 25.44 
" clip-path="url(#p047a489958)" style="fill: none; stroke: #b0b0b0; stroke-width: 0.8; stroke-linecap: square"/>
     </g>
     <g id="line2d_39">
      <g>
       <use xlink:href="#mbb74895b96" x="872.336948" y="318.04" style="stroke: #000000; stroke-width: 0.8"/>
      </g>
     </g>
     <g id="text_22">
      <!-- 0.6 -->
      <g transform="translate(864.385386 332.638438) scale(0.1 -0.1)">
       <use xlink:href="#DejaVuSans-30"/>
       <use xlink:href="#DejaVuSans-2e" transform="translate(63.623047 0)"/>
       <use xlink:href="#DejaVuSans-36" transform="translate(95.410156 0)"/>
      </g>
     </g>
    </g>
    <g id="xtick_11">
     <g id="line2d_40">
      <path d="M 955.375249 318.04 
L 955.375249 25.44 
" clip-path="url(#p047a489958)" style="fill: none; stroke: #b0b0b0; stroke-width: 0.8; stroke-linecap: square"/>
     </g>
     <g id="line2d_41">
      <g>
       <use xlink:href="#mbb74895b96" x="955.375249" y="318.04" style="stroke: #000000; stroke-width: 0.8"/>
      </g>
     </g>
     <g id="text_23">
      <!-- 0.8 -->
      <g transform="translate(947.423687 332.638438) scale(0.1 -0.1)">
       <use xlink:href="#DejaVuSans-30"/>
       <use xlink:href="#DejaVuSans-2e" transform="translate(63.623047 0)"/>
       <use xlink:href="#DejaVuSans-38" transform="translate(95.410156 0)"/>
      </g>
     </g>
    </g>
    <g id="xtick_12">
     <g id="line2d_42">
      <path d="M 1038.41355 318.04 
L 1038.41355 25.44 
" clip-path="url(#p047a489958)" style="fill: none; stroke: #b0b0b0; stroke-width: 0.8; stroke-linecap: square"/>
     </g>
     <g id="line2d_43">
      <g>
       <use xlink:href="#mbb74895b96" x="1038.41355" y="318.04" style="stroke: #000000; stroke-width: 0.8"/>
      </g>
     </g>
     <g id="text_24">
      <!-- 1.0 -->
      <g transform="translate(1030.461987 332.638438) scale(0.1 -0.1)">
       <use xlink:href="#DejaVuSans-31"/>
       <use xlink:href="#DejaVuSans-2e" transform="translate(63.623047 0)"/>
       <use xlink:href="#DejaVuSans-30" transform="translate(95.410156 0)"/>
      </g>
     </g>
    </g>
    <g id="text_25">
     <!-- Time [ms] -->
     <g transform="translate(810.393281 346.316563) scale(0.1 -0.1)">
      <use xlink:href="#DejaVuSans-54"/>
      <use xlink:href="#DejaVuSans-69" transform="translate(57.958984 0)"/>
      <use xlink:href="#DejaVuSans-6d" transform="translate(85.742188 0)"/>
      <use xlink:href="#DejaVuSans-65" transform="translate(183.154297 0)"/>
      <use xlink:href="#DejaVuSans-20" transform="translate(244.677734 0)"/>
      <use xlink:href="#DejaVuSans-5b" transform="translate(276.464844 0)"/>
      <use xlink:href="#DejaVuSans-6d" transform="translate(315.478516 0)"/>
      <use xlink:href="#DejaVuSans-73" transform="translate(412.890625 0)"/>
      <use xlink:href="#DejaVuSans-5d" transform="translate(464.990234 0)"/>
     </g>
    </g>
   </g>
   <g id="matplotlib.axis_4">
    <g id="ytick_10">
     <g id="line2d_44">
      <path d="M 601.985 299.4148 
L 1069.2 299.4148 
" clip-path="url(#p047a489958)" style="fill: none; stroke: #b0b0b0; stroke-width: 0.8; stroke-linecap: square"/>
     </g>
     <g id="line2d_45">
      <g>
       <use xlink:href="#m01fa2b3b88" x="601.985" y="299.4148" style="stroke: #000000; stroke-width: 0.8"/>
      </g>
     </g>
     <g id="text_26">
      <!-- −60000 -->
      <g transform="translate(554.792812 303.214018) scale(0.1 -0.1)">
       <use xlink:href="#DejaVuSans-2212"/>
       <use xlink:href="#DejaVuSans-36" transform="translate(83.789062 0)"/>
       <use xlink:href="#DejaVuSans-30" transform="translate(147.412109 0)"/>
       <use xlink:href="#DejaVuSans-30" transform="translate(211.035156 0)"/>
       <use xlink:href="#DejaVuSans-30" transform="translate(274.658203 0)"/>
       <use xlink:href="#DejaVuSans-30" transform="translate(338.28125 0)"/>
      </g>
     </g>
    </g>
    <g id="ytick_11">
     <g id="line2d_46">
      <path d="M 601.985 256.813196 
L 1069.2 256.813196 
" clip-path="url(#p047a489958)" style="fill: none; stroke: #b0b0b0; stroke-width: 0.8; stroke-linecap: square"/>
     </g>
     <g id="line2d_47">
      <g>
       <use xlink:href="#m01fa2b3b88" x="601.985" y="256.813196" style="stroke: #000000; stroke-width: 0.8"/>
      </g>
     </g>
     <g id="text_27">
      <!-- −40000 -->
      <g transform="translate(554.792812 260.612415) scale(0.1 -0.1)">
       <use xlink:href="#DejaVuSans-2212"/>
       <use xlink:href="#DejaVuSans-34" transform="translate(83.789062 0)"/>
       <use xlink:href="#DejaVuSans-30" transform="translate(147.412109 0)"/>
       <use xlink:href="#DejaVuSans-30" transform="translate(211.035156 0)"/>
       <use xlink:href="#DejaVuSans-30" transform="translate(274.658203 0)"/>
       <use xlink:href="#DejaVuSans-30" transform="translate(338.28125 0)"/>
      </g>
     </g>
    </g>
    <g id="ytick_12">
     <g id="line2d_48">
      <path d="M 601.985 214.211593 
L 1069.2 214.211593 
" clip-path="url(#p047a489958)" style="fill: none; stroke: #b0b0b0; stroke-width: 0.8; stroke-linecap: square"/>
     </g>
     <g id="line2d_49">
      <g>
       <use xlink:href="#m01fa2b3b88" x="601.985" y="214.211593" style="stroke: #000000; stroke-width: 0.8"/>
      </g>
     </g>
     <g id="text_28">
      <!-- −20000 -->
      <g transform="translate(554.792812 218.010812) scale(0.1 -0.1)">
       <use xlink:href="#DejaVuSans-2212"/>
       <use xlink:href="#DejaVuSans-32" transform="translate(83.789062 0)"/>
       <use xlink:href="#DejaVuSans-30" transform="translate(147.412109 0)"/>
       <use xlink:href="#DejaVuSans-30" transform="translate(211.035156 0)"/>
       <use xlink:href="#DejaVuSans-30" transform="translate(274.658203 0)"/>
       <use xlink:href="#DejaVuSans-30" transform="translate(338.28125 0)"/>
      </g>
     </g>
    </g>
    <g id="ytick_13">
     <g id="line2d_50">
      <path d="M 601.985 171.60999 
L 1069.2 171.60999 
" clip-path="url(#p047a489958)" style="fill: none; stroke: #b0b0b0; stroke-width: 0.8; stroke-linecap: square"/>
     </g>
     <g id="line2d_51">
      <g>
       <use xlink:href="#m01fa2b3b88" x="601.985" y="171.60999" style="stroke: #000000; stroke-width: 0.8"/>
      </g>
     </g>
     <g id="text_29">
      <!-- 0 -->
      <g transform="translate(588.6225 175.409209) scale(0.1 -0.1)">
       <use xlink:href="#DejaVuSans-30"/>
      </g>
     </g>
    </g>
    <g id="ytick_14">
     <g id="line2d_52">
      <path d="M 601.985 129.008387 
L 1069.2 129.008387 
" clip-path="url(#p047a489958)" style="fill: none; stroke: #b0b0b0; stroke-width: 0.8; stroke-linecap: square"/>
     </g>
     <g id="line2d_53">
      <g>
       <use xlink:href="#m01fa2b3b88" x="601.985" y="129.008387" style="stroke: #000000; stroke-width: 0.8"/>
      </g>
     </g>
     <g id="text_30">
      <!-- 20000 -->
      <g transform="translate(563.1725 132.807606) scale(0.1 -0.1)">
       <use xlink:href="#DejaVuSans-32"/>
       <use xlink:href="#DejaVuSans-30" transform="translate(63.623047 0)"/>
       <use xlink:href="#DejaVuSans-30" transform="translate(127.246094 0)"/>
       <use xlink:href="#DejaVuSans-30" transform="translate(190.869141 0)"/>
       <use xlink:href="#DejaVuSans-30" transform="translate(254.492188 0)"/>
      </g>
     </g>
    </g>
    <g id="ytick_15">
     <g id="line2d_54">
      <path d="M 601.985 86.406784 
L 1069.2 86.406784 
" clip-path="url(#p047a489958)" style="fill: none; stroke: #b0b0b0; stroke-width: 0.8; stroke-linecap: square"/>
     </g>
     <g id="line2d_55">
      <g>
       <use xlink:href="#m01fa2b3b88" x="601.985" y="86.406784" style="stroke: #000000; stroke-width: 0.8"/>
      </g>
     </g>
     <g id="text_31">
      <!-- 40000 -->
      <g transform="translate(563.1725 90.206003) scale(0.1 -0.1)">
       <use xlink:href="#DejaVuSans-34"/>
       <use xlink:href="#DejaVuSans-30" transform="translate(63.623047 0)"/>
       <use xlink:href="#DejaVuSans-30" transform="translate(127.246094 0)"/>
       <use xlink:href="#DejaVuSans-30" transform="translate(190.869141 0)"/>
       <use xlink:href="#DejaVuSans-30" transform="translate(254.492188 0)"/>
      </g>
     </g>
    </g>
    <g id="ytick_16">
     <g id="line2d_56">
      <path d="M 601.985 43.805181 
L 1069.2 43.805181 
" clip-path="url(#p047a489958)" style="fill: none; stroke: #b0b0b0; stroke-width: 0.8; stroke-linecap: square"/>
     </g>
     <g id="line2d_57">
      <g>
       <use xlink:href="#m01fa2b3b88" x="601.985" y="43.805181" style="stroke: #000000; stroke-width: 0.8"/>
      </g>
     </g>
     <g id="text_32">
      <!-- 60000 -->
      <g transform="translate(563.1725 47.6044) scale(0.1 -0.1)">
       <use xlink:href="#DejaVuSans-36"/>
       <use xlink:href="#DejaVuSans-30" transform="translate(63.623047 0)"/>
       <use xlink:href="#DejaVuSans-30" transform="translate(127.246094 0)"/>
       <use xlink:href="#DejaVuSans-30" transform="translate(190.869141 0)"/>
       <use xlink:href="#DejaVuSans-30" transform="translate(254.492188 0)"/>
      </g>
     </g>
    </g>
    <g id="text_33">
     <!-- Frequency [Hz] -->
     <g transform="translate(548.713125 209.444688) rotate(-90) scale(0.1 -0.1)">
      <defs>
       <path id="DejaVuSans-46" d="M 628 4666 
L 3309 4666 
L 3309 4134 
L 1259 4134 
L 1259 2759 
L 3109 2759 
L 3109 2228 
L 1259 2228 
L 1259 0 
L 628 0 
L 628 4666 
z
" transform="scale(0.015625)"/>
       <path id="DejaVuSans-72" d="M 2631 2963 
Q 2534 3019 2420 3045 
Q 2306 3072 2169 3072 
Q 1681 3072 1420 2755 
Q 1159 2438 1159 1844 
L 1159 0 
L 581 0 
L 581 3500 
L 1159 3500 
L 1159 2956 
Q 1341 3275 1631 3429 
Q 1922 3584 2338 3584 
Q 2397 3584 2469 3576 
Q 2541 3569 2628 3553 
L 2631 2963 
z
" transform="scale(0.015625)"/>
       <path id="DejaVuSans-71" d="M 947 1747 
Q 947 1113 1208 752 
Q 1469 391 1925 391 
Q 2381 391 2643 752 
Q 2906 1113 2906 1747 
Q 2906 2381 2643 2742 
Q 2381 3103 1925 3103 
Q 1469 3103 1208 2742 
Q 947 2381 947 1747 
z
M 2906 525 
Q 2725 213 2448 61 
Q 2172 -91 1784 -91 
Q 1150 -91 751 415 
Q 353 922 353 1747 
Q 353 2572 751 3078 
Q 1150 3584 1784 3584 
Q 2172 3584 2448 3432 
Q 2725 3281 2906 2969 
L 2906 3500 
L 3481 3500 
L 3481 -1331 
L 2906 -1331 
L 2906 525 
z
" transform="scale(0.015625)"/>
       <path id="DejaVuSans-63" d="M 3122 3366 
L 3122 2828 
Q 2878 2963 2633 3030 
Q 2388 3097 2138 3097 
Q 1578 3097 1268 2742 
Q 959 2388 959 1747 
Q 959 1106 1268 751 
Q 1578 397 2138 397 
Q 2388 397 2633 464 
Q 2878 531 3122 666 
L 3122 134 
Q 2881 22 2623 -34 
Q 2366 -91 2075 -91 
Q 1284 -91 818 406 
Q 353 903 353 1747 
Q 353 2603 823 3093 
Q 1294 3584 2113 3584 
Q 2378 3584 2631 3529 
Q 2884 3475 3122 3366 
z
" transform="scale(0.015625)"/>
       <path id="DejaVuSans-48" d="M 628 4666 
L 1259 4666 
L 1259 2753 
L 3553 2753 
L 3553 4666 
L 4184 4666 
L 4184 0 
L 3553 0 
L 3553 2222 
L 1259 2222 
L 1259 0 
L 628 0 
L 628 4666 
z
" transform="scale(0.015625)"/>
       <path id="DejaVuSans-7a" d="M 353 3500 
L 3084 3500 
L 3084 2975 
L 922 459 
L 3084 459 
L 3084 0 
L 275 0 
L 275 525 
L 2438 3041 
L 353 3041 
L 353 3500 
z
" transform="scale(0.015625)"/>
      </defs>
      <use xlink:href="#DejaVuSans-46"/>
      <use xlink:href="#DejaVuSans-72" transform="translate(50.269531 0)"/>
      <use xlink:href="#DejaVuSans-65" transform="translate(89.132812 0)"/>
      <use xlink:href="#DejaVuSans-71" transform="translate(150.65625 0)"/>
      <use xlink:href="#DejaVuSans-75" transform="translate(214.132812 0)"/>
      <use xlink:href="#DejaVuSans-65" transform="translate(277.511719 0)"/>
      <use xlink:href="#DejaVuSans-6e" transform="translate(339.035156 0)"/>
      <use xlink:href="#DejaVuSans-63" transform="translate(402.414062 0)"/>
      <use xlink:href="#DejaVuSans-79" transform="translate(457.394531 0)"/>
      <use xlink:href="#DejaVuSans-20" transform="translate(516.574219 0)"/>
      <use xlink:href="#DejaVuSans-5b" transform="translate(548.361328 0)"/>
      <use xlink:href="#DejaVuSans-48" transform="translate(587.375 0)"/>
      <use xlink:href="#DejaVuSans-7a" transform="translate(662.570312 0)"/>
      <use xlink:href="#DejaVuSans-5d" transform="translate(715.060547 0)"/>
     </g>
    </g>
   </g>
   <g id="line2d_58">
    <path d="M 623.222045 304.74 
L 1047.962955 38.74 
L 1047.962955 38.74 
" clip-path="url(#p047a489958)" style="fill: none; stroke: #1f77b4; stroke-width: 1.5; stroke-linecap: square"/>
   </g>
   <g id="patch_8">
    <path d="M 601.985 318.04 
L 601.985 25.44 
" style="fill: none; stroke: #000000; stroke-width: 0.8; stroke-linejoin: miter; stroke-linecap: square"/>
   </g>
   <g id="patch_9">
    <path d="M 1069.2 318.04 
L 1069.2 25.44 
" style="fill: none; stroke: #000000; stroke-width: 0.8; stroke-linejoin: miter; stroke-linecap: square"/>
   </g>
   <g id="patch_10">
    <path d="M 601.985 318.04 
L 1069.2 318.04 
" style="fill: none; stroke: #000000; stroke-width: 0.8; stroke-linejoin: miter; stroke-linecap: square"/>
   </g>
   <g id="patch_11">
    <path d="M 601.985 25.44 
L 1069.2 25.44 
" style="fill: none; stroke: #000000; stroke-width: 0.8; stroke-linejoin: miter; stroke-linecap: square"/>
   </g>
   <g id="text_34">
    <!-- Instantaneous Frequency of CSS Signal (Symbol 0) -->
    <g transform="translate(683.629375 19.44) scale(0.12 -0.12)">
     <defs>
      <path id="DejaVuSans-49" d="M 628 4666 
L 1259 4666 
L 1259 0 
L 628 0 
L 628 4666 
z
" transform="scale(0.015625)"/>
      <path id="DejaVuSans-66" d="M 2375 4863 
L 2375 4384 
L 1825 4384 
Q 1516 4384 1395 4259 
Q 1275 4134 1275 3809 
L 1275 3500 
L 2222 3500 
L 2222 3053 
L 1275 3053 
L 1275 0 
L 697 0 
L 697 3053 
L 147 3053 
L 147 3500 
L 697 3500 
L 697 3744 
Q 697 4328 969 4595 
Q 1241 4863 1831 4863 
L 2375 4863 
z
" transform="scale(0.015625)"/>
      <path id="DejaVuSans-28" d="M 1984 4856 
Q 1566 4138 1362 3434 
Q 1159 2731 1159 2009 
Q 1159 1288 1364 580 
Q 1569 -128 1984 -844 
L 1484 -844 
Q 1016 -109 783 600 
Q 550 1309 550 2009 
Q 550 2706 781 3412 
Q 1013 4119 1484 4856 
L 1984 4856 
z
" transform="scale(0.015625)"/>
      <path id="DejaVuSans-29" d="M 513 4856 
L 1013 4856 
Q 1481 4119 1714 3412 
Q 1947 2706 1947 2009 
Q 1947 1309 1714 600 
Q 1481 -109 1013 -844 
L 513 -844 
Q 928 -128 1133 580 
Q 1338 1288 1338 2009 
Q 1338 2731 1133 3434 
Q 928 4138 513 4856 
z
" transform="scale(0.015625)"/>
     </defs>
     <use xlink:href="#DejaVuSans-49"/>
     <use xlink:href="#DejaVuSans-6e" transform="translate(29.492188 0)"/>
     <use xlink:href="#DejaVuSans-73" transform="translate(92.871094 0)"/>
     <use xlink:href="#DejaVuSans-74" transform="translate(144.970703 0)"/>
     <use xlink:href="#DejaVuSans-61" transform="translate(184.179688 0)"/>
     <use xlink:href="#DejaVuSans-6e" transform="translate(245.458984 0)"/>
     <use xlink:href="#DejaVuSans-74" transform="translate(308.837891 0)"/>
     <use xlink:href="#DejaVuSans-61" transform="translate(348.046875 0)"/>
     <use xlink:href="#DejaVuSans-6e" transform="translate(409.326172 0)"/>
     <use xlink:href="#DejaVuSans-65" transform="translate(472.705078 0)"/>
     <use xlink:href="#DejaVuSans-6f" transform="translate(534.228516 0)"/>
     <use xlink:href="#DejaVuSans-75" transform="translate(595.410156 0)"/>
     <use xlink:href="#DejaVuSans-73" transform="translate(658.789062 0)"/>
     <use xlink:href="#DejaVuSans-20" transform="translate(710.888672 0)"/>
     <use xlink:href="#DejaVuSans-46" transform="translate(742.675781 0)"/>
     <use xlink:href="#DejaVuSans-72" transform="translate(792.945312 0)"/>
     <use xlink:href="#DejaVuSans-65" transform="translate(831.808594 0)"/>
     <use xlink:href="#DejaVuSans-71" transform="translate(893.332031 0)"/>
     <use xlink:href="#DejaVuSans-75" transform="translate(956.808594 0)"/>
     <use xlink:href="#DejaVuSans-65" transform="translate(1020.1875 0)"/>
     <use xlink:href="#DejaVuSans-6e" transform="translate(1081.710938 0)"/>
     <use xlink:href="#DejaVuSans-63" transform="translate(1145.089844 0)"/>
     <use xlink:href="#DejaVuSans-79" transform="translate(1200.070312 0)"/>
     <use xlink:href="#DejaVuSans-20" transform="translate(1259.25 0)"/>
     <use xlink:href="#DejaVuSans-6f" transform="translate(1291.037109 0)"/>
     <use xlink:href="#DejaVuSans-66" transform="translate(1352.21875 0)"/>
     <use xlink:href="#DejaVuSans-20" transform="translate(1387.423828 0)"/>
     <use xlink:href="#DejaVuSans-43" transform="translate(1419.210938 0)"/>
     <use xlink:href="#DejaVuSans-53" transform="translate(1489.035156 0)"/>
     <use xlink:href="#DejaVuSans-53" transform="translate(1552.511719 0)"/>
     <use xlink:href="#DejaVuSans-20" transform="translate(1615.988281 0)"/>
     <use xlink:href="#DejaVuSans-53" transform="translate(1647.775391 0)"/>
     <use xlink:href="#DejaVuSans-69" transform="translate(1711.251953 0)"/>
     <use xlink:href="#DejaVuSans-67" transform="translate(1739.035156 0)"/>
     <use xlink:href="#DejaVuSans-6e" transform="translate(1802.511719 0)"/>
     <use xlink:href="#DejaVuSans-61" transform="translate(1865.890625 0)"/>
     <use xlink:href="#DejaVuSans-6c" transform="translate(1927.169922 0)"/>
     <use xlink:href="#DejaVuSans-20" transform="translate(1954.953125 0)"/>
     <use xlink:href="#DejaVuSans-28" transform="translate(1986.740234 0)"/>
     <use xlink:href="#DejaVuSans-53" transform="translate(2025.753906 0)"/>
     <use xlink:href="#DejaVuSans-79" transform="translate(2089.230469 0)"/>
     <use xlink:href="#DejaVuSans-6d" transform="translate(2148.410156 0)"/>
     <use xlink:href="#DejaVuSans-62" transform="translate(2245.822266 0)"/>
     <use xlink:href="#DejaVuSans-6f" transform="translate(2309.298828 0)"/>
     <use xlink:href="#DejaVuSans-6c" transform="translate(2370.480469 0)"/>
     <use xlink:href="#DejaVuSans-20" transform="translate(2398.263672 0)"/>
     <use xlink:href="#DejaVuSans-30" transform="translate(2430.050781 0)"/>
     <use xlink:href="#DejaVuSans-29" transform="translate(2493.673828 0)"/>
    </g>
   </g>
  </g>
 </g>
 <defs>
  <clipPath id="pa6c84c2a1d">
   <rect x="62.57" y="25.44" width="467.215" height="292.6"/>
  </clipPath>
  <clipPath id="p047a489958">
   <rect x="601.985" y="25.44" width="467.215" height="292.6"/>
  </clipPath>
 </defs>
</svg>
